<svg xmlns="http://www.w3.org/2000/svg" version="1.1" viewBox="0 0 512 512"
                         style="shape-rendering:geometricPrecision; text-rendering:geometricPrecision; image-rendering:optimizeQuality; fill-rule:evenodd; clip-rule:evenodd"
                         xmlns:xlink="http://www.w3.org/1999/xlink">
                        <g>
                            <path style="opacity:1" fill="#fee5c2"
                                  d="M 113.5,-0.5 C 125.5,-0.5 137.5,-0.5 149.5,-0.5C 148.531,0.309426 147.698,1.30943 147,2.5C 146.5,50.8322 146.333,99.1655 146.5,147.5C 134.833,147.5 123.167,147.5 111.5,147.5C 111.5,147.167 111.5,146.833 111.5,146.5C 111.333,98.1655 111.5,49.8322 112,1.5C 112.717,0.955796 113.217,0.28913 113.5,-0.5 Z" />
                        </g>
                        <g>
                            <path style="opacity:0.998" fill="#fef2dd"
                                  d="M 149.5,-0.5 C 249.167,-0.5 348.833,-0.5 448.5,-0.5C 448.987,0.473444 449.487,1.47344 450,2.5C 450.5,83.4993 450.667,164.499 450.5,245.5C 411.5,245.5 372.5,245.5 333.5,245.5C 324.827,245.334 316.16,245.5 307.5,246C 304.959,247.848 303.959,250.348 304.5,253.5C 281.833,253.5 259.167,253.5 236.5,253.5C 237.041,250.348 236.041,247.848 233.5,246C 229.514,245.501 225.514,245.334 221.5,245.5C 216.489,245.334 211.489,245.501 206.5,246C 203.961,247.805 202.961,250.305 203.5,253.5C 187.5,253.5 171.5,253.5 155.5,253.5C 155.666,247.491 155.499,241.491 155,235.5C 153.52,232.183 151.02,230.183 147.5,229.5C 147.5,218.833 147.5,208.167 147.5,197.5C 166.015,193.488 173.182,182.154 169,163.5C 164.579,153.87 157.079,148.537 146.5,147.5C 146.333,99.1655 146.5,50.8322 147,2.5C 147.698,1.30943 148.531,0.309426 149.5,-0.5 Z" />
                        </g>
                        <g>
                            <path style="opacity:1" fill="#69ca45"
                                  d="M 266.5,40.5 C 306.373,36.6808 335.54,52.3475 354,87.5C 367.903,125.674 359.403,157.841 328.5,184C 295.318,205.296 262.651,204.63 230.5,182C 203.385,157.046 195.219,126.88 206,91.5C 217.808,64.5205 237.975,47.5205 266.5,40.5 Z" />
                        </g>
                        <g>
                            <path style="opacity:1" fill="#47a920"
                                  d="M 281.5,55.5 C 243.564,80.9651 234.064,114.632 253,156.5C 260.454,168.457 270.287,177.79 282.5,184.5C 250.026,183.186 228.526,167.186 218,136.5C 211.605,99.1189 225.772,72.9523 260.5,58C 267.361,56.0115 274.361,55.1782 281.5,55.5 Z" />
                        </g>
                        <g>
                            <path style="opacity:1" fill="#4fc124"
                                  d="M 281.5,55.5 C 315.925,57.7495 337.092,75.7495 345,109.5C 347.948,141.17 335.448,164.337 307.5,179C 299.483,182.254 291.149,184.088 282.5,184.5C 270.287,177.79 260.454,168.457 253,156.5C 234.064,114.632 243.564,80.9651 281.5,55.5 Z" />
                        </g>
                        <g>
                            <path style="opacity:1" fill="#fafdf9"
                                  d="M 310.5,96.5 C 318.113,95.6141 321.613,98.9474 321,106.5C 308.167,120.667 294.667,134.167 280.5,147C 277.366,147.79 274.366,147.457 271.5,146C 262.265,137.435 253.765,128.268 246,118.5C 245.821,111.357 249.321,108.524 256.5,110C 263.65,116.316 270.65,122.816 277.5,129.5C 288.854,118.812 299.854,107.812 310.5,96.5 Z" />
                        </g>
                        <g>
                            <path style="opacity:1" fill="#ba5d4c"
                                  d="M 111.5,146.5 C 111.5,146.833 111.5,147.167 111.5,147.5C 94.526,152.103 87.6926,163.103 91,180.5C 93.9294,189.096 99.7627,194.596 108.5,197C 121.34,197.169 134.007,197.669 146.5,198.5C 132.5,198.5 118.5,198.5 104.5,198.5C 95.8333,198.5 87.1667,198.5 78.5,198.5C 60.6098,194.748 53.1098,183.748 56,165.5C 58.5,156.333 64.3333,150.5 73.5,148C 86.1248,146.652 98.7914,146.152 111.5,146.5 Z" />
                        </g>
                        <g>
                            <path style="opacity:1" fill="#c96e59"
                                  d="M 111.5,147.5 C 123.167,147.5 134.833,147.5 146.5,147.5C 157.079,148.537 164.579,153.87 169,163.5C 173.182,182.154 166.015,193.488 147.5,197.5C 147.5,208.167 147.5,218.833 147.5,229.5C 147.167,229.5 146.833,229.5 146.5,229.5C 146.5,229.167 146.5,228.833 146.5,228.5C 146.5,218.5 146.5,208.5 146.5,198.5C 134.007,197.669 121.34,197.169 108.5,197C 99.7627,194.596 93.9294,189.096 91,180.5C 87.6926,163.103 94.526,152.103 111.5,147.5 Z" />
                        </g>
                        <g>
                            <path style="opacity:1" fill="#6d3326"
                                  d="M 78.5,198.5 C 87.1667,198.5 95.8333,198.5 104.5,198.5C 104.5,208.5 104.5,218.5 104.5,228.5C 95.8333,228.5 87.1667,228.5 78.5,228.5C 78.5,218.5 78.5,208.5 78.5,198.5 Z" />
                        </g>
                        <g>
                            <path style="opacity:1" fill="#873e2d"
                                  d="M 104.5,198.5 C 118.5,198.5 132.5,198.5 146.5,198.5C 146.5,208.5 146.5,218.5 146.5,228.5C 132.5,228.5 118.5,228.5 104.5,228.5C 104.5,218.5 104.5,208.5 104.5,198.5 Z" />
                        </g>
                        <g>
                            <path style="opacity:1" fill="#ba5d4b"
                                  d="M 78.5,228.5 C 87.1667,228.5 95.8333,228.5 104.5,228.5C 118.5,228.5 132.5,228.5 146.5,228.5C 146.5,228.833 146.5,229.167 146.5,229.5C 134.495,229.333 122.495,229.5 110.5,230C 109,231.5 107.5,233 106,234.5C 105.333,258.833 105.333,283.167 106,307.5C 107.36,310.023 109.193,312.023 111.5,313.5C 109.167,313.5 106.833,313.5 104.5,313.5C 95.8333,313.5 87.1667,313.5 78.5,313.5C 73.6004,313.102 70.7671,310.435 70,305.5C 69.3333,282.833 69.3333,260.167 70,237.5C 70.9577,232.709 73.7911,229.709 78.5,228.5 Z" />
                        </g>
                        <g>
                            <path style="opacity:1" fill="#ca6e59"
                                  d="M 146.5,229.5 C 146.833,229.5 147.167,229.5 147.5,229.5C 151.02,230.183 153.52,232.183 155,235.5C 155.499,241.491 155.666,247.491 155.5,253.5C 155.5,265.5 155.5,277.5 155.5,289.5C 155.666,295.509 155.499,301.509 155,307.5C 153.516,310.821 151.016,312.821 147.5,313.5C 147.167,313.5 146.833,313.5 146.5,313.5C 134.833,313.5 123.167,313.5 111.5,313.5C 109.193,312.023 107.36,310.023 106,307.5C 105.333,283.167 105.333,258.833 106,234.5C 107.5,233 109,231.5 110.5,230C 122.495,229.5 134.495,229.333 146.5,229.5 Z" />
                        </g>
                        <g>
                            <path style="opacity:1" fill="#bb5d4c"
                                  d="M 221.5,245.5 C 220.878,246.627 220.045,247.627 219,248.5C 218.333,263.833 218.333,279.167 219,294.5C 219.5,295 220,295.5 220.5,296C 215.845,296.499 211.179,296.666 206.5,296.5C 203.908,294.964 202.908,292.631 203.5,289.5C 203.5,289.167 203.5,288.833 203.5,288.5C 203.5,282.833 203.5,277.167 203.5,271.5C 203.5,265.833 203.5,260.167 203.5,254.5C 203.5,254.167 203.5,253.833 203.5,253.5C 202.961,250.305 203.961,247.805 206.5,246C 211.489,245.501 216.489,245.334 221.5,245.5 Z" />
                        </g>
                        <g>
                            <path style="opacity:1" fill="#c56e59"
                                  d="M 221.5,245.5 C 225.514,245.334 229.514,245.501 233.5,246C 236.041,247.848 237.041,250.348 236.5,253.5C 259.167,253.5 281.833,253.5 304.5,253.5C 304.5,253.833 304.5,254.167 304.5,254.5C 281.833,254.5 259.167,254.5 236.5,254.5C 236.5,260.167 236.5,265.833 236.5,271.5C 236.5,277.167 236.5,282.833 236.5,288.5C 259.167,288.5 281.833,288.5 304.5,288.5C 304.5,288.833 304.5,289.167 304.5,289.5C 281.833,289.5 259.167,289.5 236.5,289.5C 237.041,292.652 236.041,295.152 233.5,297C 224.324,297.824 215.324,297.657 206.5,296.5C 211.179,296.666 215.845,296.499 220.5,296C 220,295.5 219.5,295 219,294.5C 218.333,279.167 218.333,263.833 219,248.5C 220.045,247.627 220.878,246.627 221.5,245.5 Z" />
                        </g>
                        <g>
                            <path style="opacity:1" fill="#bb5d4c"
                                  d="M 333.5,245.5 C 333.334,254.173 333.5,262.84 334,271.5C 335.214,273.049 336.714,274.215 338.5,275C 391.166,275.5 443.832,275.667 496.5,275.5C 494.325,285.18 488.658,292.013 479.5,296C 469.914,297.42 460.247,297.92 450.5,297.5C 403.165,297.667 355.832,297.5 308.5,297C 305.479,295.461 304.146,292.961 304.5,289.5C 304.5,289.167 304.5,288.833 304.5,288.5C 304.5,282.833 304.5,277.167 304.5,271.5C 304.5,265.833 304.5,260.167 304.5,254.5C 304.5,254.167 304.5,253.833 304.5,253.5C 303.959,250.348 304.959,247.848 307.5,246C 316.16,245.5 324.827,245.334 333.5,245.5 Z" />
                        </g>
                        <g>
                            <path style="opacity:0.997" fill="#c96d58"
                                  d="M 333.5,245.5 C 372.5,245.5 411.5,245.5 450.5,245.5C 459.506,245.334 468.506,245.5 477.5,246C 490.984,251.118 497.318,260.951 496.5,275.5C 443.832,275.667 391.166,275.5 338.5,275C 336.714,274.215 335.214,273.049 334,271.5C 333.5,262.84 333.334,254.173 333.5,245.5 Z" />
                        </g>
                        <g>
                            <path style="opacity:1" fill="#873f2d"
                                  d="M 203.5,254.5 C 203.5,260.167 203.5,265.833 203.5,271.5C 187.833,271.5 172.167,271.5 156.5,271.5C 156.5,265.833 156.5,260.167 156.5,254.5C 172.167,254.5 187.833,254.5 203.5,254.5 Z" />
                        </g>
                        <g>
                            <path style="opacity:1" fill="#873f2d"
                                  d="M 304.5,254.5 C 304.5,260.167 304.5,265.833 304.5,271.5C 281.833,271.5 259.167,271.5 236.5,271.5C 236.5,265.833 236.5,260.167 236.5,254.5C 259.167,254.5 281.833,254.5 304.5,254.5 Z" />
                        </g>
                        <g>
                            <path style="opacity:1" fill="#9c5c4b"
                                  d="M 155.5,253.5 C 171.5,253.5 187.5,253.5 203.5,253.5C 203.5,253.833 203.5,254.167 203.5,254.5C 187.833,254.5 172.167,254.5 156.5,254.5C 156.5,260.167 156.5,265.833 156.5,271.5C 156.5,277.167 156.5,282.833 156.5,288.5C 172.167,288.5 187.833,288.5 203.5,288.5C 203.5,288.833 203.5,289.167 203.5,289.5C 187.5,289.5 171.5,289.5 155.5,289.5C 155.5,277.5 155.5,265.5 155.5,253.5 Z" />
                        </g>
                        <g>
                            <path style="opacity:1" fill="#6d3326"
                                  d="M 156.5,271.5 C 172.167,271.5 187.833,271.5 203.5,271.5C 203.5,277.167 203.5,282.833 203.5,288.5C 187.833,288.5 172.167,288.5 156.5,288.5C 156.5,282.833 156.5,277.167 156.5,271.5 Z" />
                        </g>
                        <g>
                            <path style="opacity:1" fill="#6d3326"
                                  d="M 236.5,271.5 C 259.167,271.5 281.833,271.5 304.5,271.5C 304.5,277.167 304.5,282.833 304.5,288.5C 281.833,288.5 259.167,288.5 236.5,288.5C 236.5,282.833 236.5,277.167 236.5,271.5 Z" />
                        </g>
                        <g>
                            <path style="opacity:0.998" fill="#fef2dd"
                                  d="M 155.5,289.5 C 171.5,289.5 187.5,289.5 203.5,289.5C 202.908,292.631 203.908,294.964 206.5,296.5C 215.324,297.657 224.324,297.824 233.5,297C 236.041,295.152 237.041,292.652 236.5,289.5C 259.167,289.5 281.833,289.5 304.5,289.5C 304.146,292.961 305.479,295.461 308.5,297C 355.832,297.5 403.165,297.667 450.5,297.5C 450.667,367.834 450.5,438.167 450,508.5C 449.487,509.527 448.987,510.527 448.5,511.5C 369.5,511.5 290.5,511.5 211.5,511.5C 211.667,499.495 211.5,487.495 211,475.5C 209.878,473.376 208.378,471.543 206.5,470C 201.934,468.691 197.267,468.191 192.5,468.5C 192.666,460.16 192.5,451.827 192,443.5C 190.749,440.619 188.583,438.786 185.5,438C 172.504,437.5 159.504,437.333 146.5,437.5C 146.5,423.5 146.5,409.5 146.5,395.5C 165.583,391.343 173.083,379.677 169,360.5C 164.723,351.394 157.556,346.394 147.5,345.5C 147.5,334.833 147.5,324.167 147.5,313.5C 151.016,312.821 153.516,310.821 155,307.5C 155.499,301.509 155.666,295.509 155.5,289.5 Z" />
                        </g>
                        <g>
                            <path style="opacity:1" fill="#6d3326"
                                  d="M 78.5,313.5 C 87.1667,313.5 95.8333,313.5 104.5,313.5C 104.5,323.833 104.5,334.167 104.5,344.5C 95.8333,344.5 87.1667,344.5 78.5,344.5C 78.5,334.167 78.5,323.833 78.5,313.5 Z" />
                        </g>
                        <g>
                            <path style="opacity:1" fill="#883f2e"
                                  d="M 104.5,313.5 C 106.833,313.5 109.167,313.5 111.5,313.5C 123.167,313.5 134.833,313.5 146.5,313.5C 146.5,323.833 146.5,334.167 146.5,344.5C 132.5,344.5 118.5,344.5 104.5,344.5C 104.5,334.167 104.5,323.833 104.5,313.5 Z" />
                        </g>
                        <g>
                            <path style="opacity:1" fill="#f6ab6f"
                                  d="M 248.5,328.5 C 297.168,328.333 345.834,328.5 394.5,329C 401.466,332.846 402.133,337.513 396.5,343C 346.5,343.667 296.5,343.667 246.5,343C 242.002,337.32 242.669,332.487 248.5,328.5 Z" />
                        </g>
                        <g>
                            <path style="opacity:1" fill="#bb5d4c"
                                  d="M 78.5,344.5 C 87.1667,344.5 95.8333,344.5 104.5,344.5C 118.5,344.5 132.5,344.5 146.5,344.5C 133.34,345.331 120.006,345.831 106.5,346C 89.6169,355.19 85.7836,368.356 95,385.5C 99.4269,390.789 104.927,394.122 111.5,395.5C 99.1622,395.667 86.8288,395.5 74.5,395C 56.625,388.063 51.125,375.563 58,357.5C 62.6974,349.738 69.5307,345.405 78.5,344.5 Z" />
                        </g>
                        <g>
                            <path style="opacity:1" fill="#ca6e59"
                                  d="M 146.5,313.5 C 146.833,313.5 147.167,313.5 147.5,313.5C 147.5,324.167 147.5,334.833 147.5,345.5C 157.556,346.394 164.723,351.394 169,360.5C 173.083,379.677 165.583,391.343 146.5,395.5C 134.833,395.5 123.167,395.5 111.5,395.5C 104.927,394.122 99.4269,390.789 95,385.5C 85.7836,368.356 89.6169,355.19 106.5,346C 120.006,345.831 133.34,345.331 146.5,344.5C 146.5,334.167 146.5,323.833 146.5,313.5 Z" />
                        </g>
                        <g>
                            <path style="opacity:1" fill="#f6a96c"
                                  d="M 247.5,366.5 C 263.17,366.333 278.837,366.5 294.5,367C 299.913,370.156 300.913,374.49 297.5,380C 296.5,380.333 295.5,380.667 294.5,381C 278.833,381.667 263.167,381.667 247.5,381C 242.203,376.215 242.203,371.382 247.5,366.5 Z" />
                        </g>
                        <g>
                            <path style="opacity:1" fill="#f6a96c"
                                  d="M 316.5,366.5 C 342.502,366.333 368.502,366.5 394.5,367C 398.102,367.85 399.769,370.183 399.5,374C 399.769,377.817 398.102,380.15 394.5,381C 368.5,381.667 342.5,381.667 316.5,381C 313.634,379.607 312.301,377.274 312.5,374C 312.43,370.634 313.763,368.134 316.5,366.5 Z" />
                        </g>
                        <g>
                            <path style="opacity:1" fill="#ffe5c2"
                                  d="M 111.5,395.5 C 123.167,395.5 134.833,395.5 146.5,395.5C 146.5,409.5 146.5,423.5 146.5,437.5C 134.833,437.5 123.167,437.5 111.5,437.5C 111.5,423.5 111.5,409.5 111.5,395.5 Z" />
                        </g>
                        <g>
                            <path style="opacity:1" fill="#f6aa6e"
                                  d="M 246.5,404.5 C 296.501,404.333 346.501,404.5 396.5,405C 399.394,407.909 400.227,411.409 399,415.5C 397.786,417.049 396.286,418.215 394.5,419C 345.833,419.667 297.167,419.667 248.5,419C 243.776,416.565 242.276,412.731 244,407.5C 245.045,406.627 245.878,405.627 246.5,404.5 Z" />
                        </g>
                        <g>
                            <path style="opacity:1" fill="#ba5d4c"
                                  d="M 74.5,437.5 C 72.193,438.977 70.3597,440.977 69,443.5C 68.5003,451.827 68.3336,460.16 68.5,468.5C 64.1667,468.5 59.8333,468.5 55.5,468.5C 47.6484,468.825 39.9818,468.492 32.5,467.5C 32.3337,460.159 32.5003,452.826 33,445.5C 33.504,441.98 35.3374,439.48 38.5,438C 50.4954,437.5 62.4954,437.333 74.5,437.5 Z" />
                        </g>
                        <g>
                            <path style="opacity:1" fill="#c96d58"
                                  d="M 74.5,437.5 C 86.8333,437.5 99.1667,437.5 111.5,437.5C 123.167,437.5 134.833,437.5 146.5,437.5C 159.504,437.333 172.504,437.5 185.5,438C 188.583,438.786 190.749,440.619 192,443.5C 192.5,451.827 192.666,460.16 192.5,468.5C 151.167,468.5 109.833,468.5 68.5,468.5C 68.3336,460.16 68.5003,451.827 69,443.5C 70.3597,440.977 72.193,438.977 74.5,437.5 Z" />
                        </g>
                        <g>
                            <path style="opacity:1" fill="#f6aa6d"
                                  d="M 247.5,441.5 C 276.169,441.333 304.835,441.5 333.5,442C 341.073,446.187 341.406,450.854 334.5,456C 305.5,456.667 276.5,456.667 247.5,456C 243.788,453.487 242.622,449.987 244,445.5C 245.376,444.295 246.542,442.962 247.5,441.5 Z" />
                        </g>
                        <g>
                            <path style="opacity:1" fill="#f6aa6d"
                                  d="M 352.5,441.5 C 366.504,441.333 380.504,441.5 394.5,442C 399.143,444.072 400.643,447.572 399,452.5C 398.5,454.333 397.333,455.5 395.5,456C 381.167,456.667 366.833,456.667 352.5,456C 348.788,453.487 347.622,449.987 349,445.5C 350.376,444.295 351.542,442.962 352.5,441.5 Z" />
                        </g>
                        <g>
                            <path style="opacity:1" fill="#6d3326"
                                  d="M 32.5,467.5 C 39.9818,468.492 47.6484,468.825 55.5,468.5C 52.8001,470.046 50.9668,472.379 50,475.5C 49.3333,486.5 49.3333,497.5 50,508.5C 51.045,509.373 51.8783,510.373 52.5,511.5C 40.5,511.5 28.5,511.5 16.5,511.5C 16.0133,510.527 15.5133,509.527 15,508.5C 14.8333,503 14.6667,497.5 14.5,492C 14.3949,485.423 14.8949,478.923 16,472.5C 20.6173,468.143 26.1173,466.476 32.5,467.5 Z" />
                        </g>
                        <g>
                            <path style="opacity:1" fill="#883f2e"
                                  d="M 55.5,468.5 C 59.8333,468.5 64.1667,468.5 68.5,468.5C 109.833,468.5 151.167,468.5 192.5,468.5C 197.267,468.191 201.934,468.691 206.5,470C 208.378,471.543 209.878,473.376 211,475.5C 211.5,487.495 211.667,499.495 211.5,511.5C 158.5,511.5 105.5,511.5 52.5,511.5C 51.8783,510.373 51.045,509.373 50,508.5C 49.3333,497.5 49.3333,486.5 50,475.5C 50.9668,472.379 52.8001,470.046 55.5,468.5 Z" />
                        </g>
                    </svg>
