<svg xmlns="http://www.w3.org/2000/svg" version="1.1" viewBox="0 0 445 445"
                         style="overflow: visible; shape-rendering:geometricPrecision; text-rendering:geometricPrecision; image-rendering:optimizeQuality; fill-rule:evenodd; clip-rule:evenodd"
                         xmlns:xlink="http://www.w3.org/1999/xlink">
                        <g>
                            <path style="opacity:0.991" fill="#387ADF"
                                  d="M 86.5,101.5 C 107.944,114.059 129.277,126.893 150.5,140C 161.755,152.268 172.755,164.935 183.5,178C 196.569,176.489 209.569,174.322 222.5,171.5C 233.407,173.492 244.407,174.326 255.5,174C 260.772,170.684 266.439,169.017 272.5,169C 274.127,171.754 275.627,174.588 277,177.5C 285.604,182.701 290.104,190.368 290.5,200.5C 293.265,200.202 295.765,199.202 298,197.5C 298.333,197.833 298.667,198.167 299,198.5C 299.831,206.188 299.665,213.855 298.5,221.5C 297.914,221.291 297.414,220.957 297,220.5C 296.501,225.489 296.334,230.489 296.5,235.5C 301.518,235.613 306.518,235.947 311.5,236.5C 311.747,244.546 312.413,252.546 313.5,260.5C 324.496,261 335.496,261.5 346.5,262C 347.325,263.688 348.325,263.855 349.5,262.5C 351.636,263.472 352.803,265.139 353,267.5C 354,266.167 355,266.167 356,267.5C 356.93,270.85 356.097,273.683 353.5,276C 357.552,280.607 362.386,283.107 368,283.5C 370,282.5 370,281.5 368,280.5C 366.378,275.593 367.712,271.926 372,269.5C 374.364,265.813 376.698,262.146 379,258.5C 381.952,254.714 385.785,252.38 390.5,251.5C 394.159,245.67 399.493,243.003 406.5,243.5C 406.5,242.5 406.5,241.5 406.5,240.5C 408.484,240.617 410.15,239.95 411.5,238.5C 414.702,235.442 417.535,232.108 420,228.5C 421.96,229.292 423.46,230.625 424.5,232.5C 427.97,226.14 433.303,222.973 440.5,223C 442.607,224.264 443.607,226.097 443.5,228.5C 439.926,230.122 436.259,231.455 432.5,232.5C 432.567,235.766 430.901,237.266 427.5,237C 425.192,239.303 423.192,241.803 421.5,244.5C 419.062,246.535 416.395,248.201 413.5,249.5C 416.948,250.409 419.948,252.076 422.5,254.5C 424.191,252.744 426.191,252.244 428.5,253C 430.02,255.596 430.853,258.429 431,261.5C 431.333,261.167 431.667,260.833 432,260.5C 434.224,262.054 436.724,263.054 439.5,263.5C 442.488,263.29 445.488,262.956 448.5,262.5C 447.572,261.232 447.405,259.899 448,258.5C 449.667,257.833 451.333,257.167 453,256.5C 454.564,254.335 454.397,252.668 452.5,251.5C 453.328,250.585 454.328,249.919 455.5,249.5C 458.068,252.295 460.401,255.295 462.5,258.5C 461.96,259.748 461.293,260.915 460.5,262C 463.3,263.232 466.3,263.899 469.5,264C 469.667,268.334 471.167,269.167 474,266.5C 477.482,267.916 479.982,270.416 481.5,274C 484.426,274.218 487.26,274.718 490,275.5C 490.308,274.692 490.808,274.025 491.5,273.5C 492.736,274.246 494.07,274.579 495.5,274.5C 495.649,275.552 495.483,276.552 495,277.5C 492.579,278.961 490.079,280.294 487.5,281.5C 486.194,282.912 485.36,284.579 485,286.5C 482.688,287.15 480.188,287.15 477.5,286.5C 476.851,288.624 476.017,290.624 475,292.5C 473.333,291.167 471.667,289.833 470,288.5C 466.525,291.052 464.358,294.052 463.5,297.5C 460.93,298.702 458.43,300.035 456,301.5C 454.956,300.377 454.29,299.044 454,297.5C 453.612,298.428 452.945,299.095 452,299.5C 448.828,297.166 445.328,295.5 441.5,294.5C 437.646,296.562 433.646,298.395 429.5,300C 424.959,301.132 422.792,299.299 423,294.5C 419.933,294.208 417.766,292.708 416.5,290C 420.827,287.154 424.827,283.821 428.5,280C 427.552,279.517 426.552,279.351 425.5,279.5C 426.101,275.363 424.434,272.029 420.5,269.5C 419.672,272.327 418.006,274.493 415.5,276C 410.083,279.069 404.75,281.569 399.5,283.5C 397.064,282.9 395.398,281.4 394.5,279C 393.207,278.51 391.873,278.343 390.5,278.5C 389.167,280.833 389.167,283.167 390.5,285.5C 389.5,285.5 388.5,285.5 387.5,285.5C 388.777,290.074 389.443,294.574 389.5,299C 386.482,299.499 383.482,299.332 380.5,298.5C 376.21,298.854 372.21,300.02 368.5,302C 372.341,301 376.341,300.5 380.5,300.5C 380.5,301.833 380.5,303.167 380.5,304.5C 378.571,304.231 376.905,304.731 375.5,306C 377.155,307.444 377.822,309.278 377.5,311.5C 375.61,311.297 374.11,311.963 373,313.5C 372.667,312.833 372.333,312.167 372,311.5C 370.954,313.09 369.787,314.59 368.5,316C 369.934,320.42 368.267,322.92 363.5,323.5C 356.336,322.741 349.336,321.574 342.5,320C 340.242,321.118 338.242,322.618 336.5,324.5C 337.577,326.729 338.244,329.063 338.5,331.5C 337.325,331.281 336.325,331.614 335.5,332.5C 337.35,334.572 339.683,335.905 342.5,336.5C 343.452,338.045 343.785,339.712 343.5,341.5C 346.119,341.768 348.619,341.435 351,340.5C 354.92,340.587 357.087,342.587 357.5,346.5C 357.41,348.425 356.41,349.592 354.5,350C 354.583,353.362 354.75,356.862 355,360.5C 356.487,361.253 356.654,362.086 355.5,363C 357.558,364.933 359.725,366.767 362,368.5C 363.301,370.365 363.635,372.365 363,374.5C 361.54,376.972 360.54,379.639 360,382.5C 358.491,383.09 356.991,383.756 355.5,384.5C 352.8,388.704 350.3,393.037 348,397.5C 347.929,401.687 347.262,405.687 346,409.5C 341.082,406.196 336.249,406.196 331.5,409.5C 330.305,407.703 328.638,406.703 326.5,406.5C 325.254,401.574 322.588,400.574 318.5,403.5C 315.833,403.5 313.167,403.5 310.5,403.5C 309.119,400.682 310.119,399.182 313.5,399C 309.26,392.736 309.593,386.736 314.5,381C 312.3,378.954 309.633,377.954 306.5,378C 302.207,374.588 297.54,371.754 292.5,369.5C 290.232,370.544 287.899,370.711 285.5,370C 278.44,367.136 272.44,362.803 267.5,357C 260.845,354.004 254.845,350.004 249.5,345C 240.023,342.415 232.356,337.082 226.5,329C 216.558,322.724 206.892,316.057 197.5,309C 196.107,307.829 195.273,306.329 195,304.5C 194.73,301.776 194.23,299.109 193.5,296.5C 193.709,295.914 194.043,295.414 194.5,295C 192.597,291.092 189.93,287.759 186.5,285C 184.417,280.007 182.917,274.84 182,269.5C 178.512,264.852 174.012,261.519 168.5,259.5C 167.719,260.729 167.219,262.062 167,263.5C 165.938,264.097 164.772,264.43 163.5,264.5C 159.903,262.805 156.07,261.805 152,261.5C 148.173,262.239 144.34,262.406 140.5,262C 136.722,259.888 133.222,257.388 130,254.5C 129.383,251.965 129.883,249.632 131.5,247.5C 127.832,244.451 127.832,241.617 131.5,239C 129.359,237.692 127.359,236.192 125.5,234.5C 126.167,233.5 126.833,232.5 127.5,231.5C 126.767,229.368 126.767,227.535 127.5,226C 126.034,225.365 124.7,224.531 123.5,223.5C 122.914,223.709 122.414,224.043 122,224.5C 118.255,223.703 114.421,223.203 110.5,223C 107.8,220.534 105.633,217.7 104,214.5C 101.79,215.749 99.6237,215.582 97.5,214C 95.3171,211.65 92.9837,209.483 90.5,207.5C 89.2011,208.09 88.3678,209.09 88,210.5C 85.4566,210.365 82.7899,209.698 80,208.5C 78.7453,209.211 77.5786,210.044 76.5,211C 78.0806,211.707 79.5806,212.54 81,213.5C 82.629,217.104 84.4623,220.437 86.5,223.5C 85.1667,223.5 83.8333,223.5 82.5,223.5C 82.6427,221.738 82.3094,220.071 81.5,218.5C 78.5265,217.665 75.5265,216.665 72.5,215.5C 71.646,216.522 70.646,217.355 69.5,218C 71.2747,221.394 70.608,224.06 67.5,226C 67.8333,226.333 68.1667,226.667 68.5,227C 63.1471,227.658 57.8137,228.325 52.5,229C 50.5125,230.319 49.3459,232.152 49,234.5C 47.5587,235.87 45.892,236.87 44,237.5C 43.5216,242.868 43.8549,248.201 45,253.5C 46.0736,254.618 47.2402,255.618 48.5,256.5C 47.2634,257.281 46.2634,258.281 45.5,259.5C 44,259.833 42.5,260.167 41,260.5C 32.4991,259.767 23.9991,259.1 15.5,258.5C 15.1667,213.495 15.5001,168.495 16.5,123.5C 40.1354,116.73 63.4687,109.397 86.5,101.5 Z" />
                        </g>
                    </svg>
