<svg viewBox="0 0 1024 1024" class="icon" xmlns="http://www.w3.org/2000/svg">
                    <path
                        d="M943.394 141.785h-334.59c-8.61 0-15.59 6.905-15.59 15.422l-41.41 81.11H103.542c-21.977 0-39.798 17.628-39.798 39.369v568.14c0 21.746 17.82 39.367 39.798 39.367h815.646c21.978 0 39.796-17.621 39.796-39.366v-688.62c.001-8.517-6.98-15.422-15.59-15.422"
                        fill="#BED3F4" />
                    <path
                        d="M932.424 168.344v677.48c0 7.062-5.939 12.807-13.236 12.807H103.54c-7.299 0-13.237-5.745-13.237-12.807v-568.14c0-7.062 5.938-12.808 13.237-12.808h448.265a26.56 26.56 0 0 0 23.655-14.483l41.408-81.11q.238-.465.457-.939zm10.97-26.56h-334.59c-8.61 0-15.59 6.906-15.59 15.423l-41.41 81.11H103.542c-21.977 0-39.798 17.628-39.798 39.369v568.14c0 21.746 17.82 39.367 39.798 39.367h815.646c21.978 0 39.796-17.621 39.796-39.366v-688.62c0-8.517-6.98-15.422-15.59-15.422"
                        fill="#4E6DC4" />
                    <path
                        d="M448.906 344.799h385.428c17.405 0 31.517 13.96 31.517 31.177V651c0 17.221-14.112 31.176-31.517 31.176h-645.94c-17.405 0-31.517-13.955-31.517-31.176V375.976c0-17.218 14.112-31.177 31.517-31.177z"
                        fill="#FFF" />
                    <path
                        d="M834.334 371.36c2.733 0 4.957 2.07 4.957 4.616v275.026c0 2.545-2.224 4.615-4.957 4.615h-645.94c-2.734 0-4.958-2.071-4.958-4.615V375.976c0-2.546 2.224-4.617 4.958-4.617zm0-26.56h-645.94c-17.405 0-31.517 13.96-31.517 31.177v275.026c0 17.22 14.112 31.176 31.517 31.176h645.94c17.405 0 31.517-13.956 31.517-31.176V375.976c0-17.218-14.112-31.177-31.517-31.177"
                        fill="#4E6DC4" />
                    <path
                        d="M432.496 454.263h486.692c21.978 0 39.796 17.627 39.796 39.368v347.283c0 21.746-17.818 39.366-39.796 39.366H103.54c-21.977 0-39.798-17.62-39.798-39.366V493.63c0-21.74 17.82-39.368 39.798-39.368z"
                        fill="#DCE5F7" />
                    <path
                        d="M919.187 480.823c7.3 0 13.237 5.746 13.237 12.808v347.283c0 7.062-5.939 12.807-13.237 12.807H103.54c-7.299 0-13.237-5.745-13.237-12.807V493.63c0-7.062 5.938-12.808 13.237-12.808h815.646m0-26.56H103.54c-21.977 0-39.798 17.628-39.798 39.368v347.283c0 21.746 17.82 39.366 39.798 39.366h815.646c21.978 0 39.797-17.62 39.797-39.366V493.63c0-21.74-17.818-39.368-39.797-39.368"
                        fill="#4E6DC4" />
                    <path
                        d="M780.67 588.756c0 13.15-10.998 23.811-24.565 23.811H266.622c-13.568 0-24.566-10.66-24.566-23.811s10.998-23.812 24.566-23.812h489.482c13.567 0 24.566 10.66 24.566 23.812m0 117.232c0 13.151-10.998 23.812-24.565 23.812H266.622c-13.568 0-24.566-10.66-24.566-23.812s10.998-23.811 24.566-23.811h489.482c13.567 0 24.566 10.66 24.566 23.811"
                        fill="#4E6DC4" />
                </svg>
