<svg viewBox="0 0 520 520" xmlns="http://www.w3.org/2000/svg"
                     style="
                  shape-rendering: geometricPrecision;
                  text-rendering: geometricPrecision;
                  image-rendering: optimizeQuality;
                  fill-rule: evenodd;
                  clip-rule: evenodd;
                  border-radius: 50%;
                ">
                    <path
                        d="M0 0 C0.96988861 0.00182281 1.93977722 0.00364563 2.9390564 0.00552368 C17.29056055 0.05091691 31.25442918 0.5562653 45.375 3.3125 C46.72053955 3.55395752 46.72053955 3.55395752 48.09326172 3.80029297 C91.69438156 11.68987506 132.84026903 31.3774291 166.375 60.3125 C167.13167969 60.95832031 167.88835937 61.60414062 168.66796875 62.26953125 C180.8161432 72.91190183 192.64131337 84.40083733 202.375 97.3125 C202.78878906 97.84987793 203.20257813 98.38725586 203.62890625 98.94091797 C211.31576589 108.9388779 218.06113145 119.40061847 224.375 130.3125 C224.76929199 130.98974121 225.16358398 131.66698242 225.56982422 132.36474609 C240.50813147 158.33637879 249.72342533 187.78499709 254.375 217.3125 C254.55232666 218.41956299 254.72965332 219.52662598 254.91235352 220.66723633 C256.59514215 232.40032467 256.73238493 244.03653844 256.6875 255.875 C256.68534485 256.89540375 256.6831897 257.9158075 256.68096924 258.96713257 C256.63133352 273.59460524 256.38419712 287.94513838 253.375 302.3125 C253.07698486 303.77478027 253.07698486 303.77478027 252.77294922 305.26660156 C242.65232806 353.6484774 220.7358123 397.63678269 186.375 433.3125 C185.74287598 433.97185547 185.11075195 434.63121094 184.45947266 435.31054688 C175.31502521 444.79880305 166.01765991 453.5387044 155.375 461.3125 C154.22394983 462.17056152 153.07290823 463.02863451 151.921875 463.88671875 C143.73224019 469.92427396 135.22961724 475.30707302 126.375 480.3125 C125.66778809 480.7146875 124.96057617 481.116875 124.23193359 481.53125 C101.09654164 494.5566741 75.92537591 503.30551461 49.9375 508.625 C49.21860596 508.77235596 48.49971191 508.91971191 47.7590332 509.0715332 C32.2805416 512.01349792 16.96897347 512.68487899 1.25 512.625 C0.25676727 512.62317719 -0.73646545 512.62135437 -1.75979614 512.61947632 C-16.23317811 512.57474558 -30.39676256 512.20173753 -44.625 509.3125 C-45.52541016 509.13557617 -46.42582031 508.95865234 -47.35351562 508.77636719 C-53.82795153 507.4774419 -60.23374463 505.97111797 -66.625 504.3125 C-67.45563965 504.09754883 -68.2862793 503.88259766 -69.14208984 503.66113281 C-109.61050039 492.92838092 -146.54181601 471.28690378 -176.625 442.3125 C-177.28435547 441.68037598 -177.94371094 441.04825195 -178.62304688 440.39697266 C-188.11382 431.25009947 -196.83820776 421.94804306 -204.625 411.3125 C-205.44744754 410.21969886 -206.27036382 409.12725034 -207.09375 408.03515625 C-229.29450597 378.1912292 -244.13797571 343.68546844 -251.625 307.3125 C-251.83527832 306.31138184 -252.04555664 305.31026367 -252.26220703 304.27880859 C-258.61424225 272.55886711 -258.31108653 236.93875059 -251.625 205.3125 C-251.40537598 204.27061523 -251.18575195 203.22873047 -250.95947266 202.15527344 C-241.04735766 156.7124702 -219.22440838 113.4525054 -186.46972656 80.18798828 C-184.52498022 78.21081235 -182.60253414 76.21330796 -180.6796875 74.21484375 C-172.51124101 65.80260723 -164.07869229 58.24179512 -154.625 51.3125 C-154.05571777 50.88775391 -153.48643555 50.46300781 -152.89990234 50.02539062 C-144.15908179 43.50981985 -135.11413672 37.67661453 -125.625 32.3125 C-124.91778809 31.9103125 -124.21057617 31.508125 -123.48193359 31.09375 C-97.33439144 16.37245949 -68.31333558 6.67328667 -38.625 2.3125 C-37.42037109 2.13517334 -36.21574219 1.95784668 -34.97460938 1.77514648 C-23.31732646 0.176175 -11.75313902 -0.0459053 0 0 Z "
                        fill="#40814b" transform="translate(255.625,-0.3125)" />
                    <path
                        d="M0 0 C3.37340956 2.24799119 4.91263207 2.83855752 8.99047852 2.31347656 C10.30582548 1.91315357 11.61447165 1.49028102 12.91625977 1.04785156 C27.95401657 -3.30991605 42.2820612 -1.04022644 56.16625977 6.04785156 C70.97856481 14.70510506 80.24245527 27.44277283 85.22875977 43.79785156 C85.4018445 45.13036694 85.56991597 46.46356366 85.72875977 47.79785156 C88.0475368 52.43540564 91.96518534 52.95293865 96.71313477 54.56347656 C116.87258892 61.64168491 132.8362179 78.45125874 142.01782227 97.38378906 C147.41681417 109.43178578 149.74971194 120.48309919 149.60375977 133.67285156 C149.60230957 134.90648437 149.60085938 136.14011719 149.59936523 137.41113281 C149.52516494 143.85888249 149.10199616 149.59577482 147.35375977 155.79785156 C145.90715148 161.03351184 146.55118514 163.62444976 148.97875977 168.48535156 C150.04787615 170.26480428 151.12877692 172.037312 152.22875977 173.79785156 C154.99750172 182.10407744 153.92933937 192.34749292 150.54907227 200.30175781 C146.39433936 208.15641558 141.05503727 213.58051121 133.22875977 217.79785156 C132.34446289 218.04921875 131.46016602 218.30058594 130.54907227 218.55957031 C127.92980802 219.61820457 127.92980802 219.61820457 127.26000977 222.63378906 C127.08469727 223.80167969 126.90938477 224.96957031 126.72875977 226.17285156 C124.84772606 236.48683411 121.06436345 245.12781181 115.22875977 253.79785156 C109.56570499 249.098721 104.38688401 244.04178564 99.22875977 238.79785156 C97.89657339 237.46337226 96.56359884 236.12967745 95.22875977 234.79785156 C95.69926758 233.83105469 96.16977539 232.86425781 96.65454102 231.86816406 C97.28382566 230.55324092 97.91271023 229.23812625 98.54125977 227.92285156 C98.84999023 227.29121094 99.1587207 226.65957031 99.47680664 226.00878906 C101.97688741 220.74546113 103.67481631 215.40626504 105.22875977 209.79785156 C105.47537354 208.91919434 105.7219873 208.04053711 105.97607422 207.13525391 C106.73716323 204.40046828 107.48526586 201.6624702 108.22875977 198.92285156 C108.48931152 197.96556152 108.74986328 197.00827148 109.01831055 196.02197266 C110.84021344 189.3006436 112.60025639 182.56899719 114.22875977 175.79785156 C113.03250977 175.71535156 111.83625977 175.63285156 110.60375977 175.54785156 C105.29661332 174.954506 100.3720046 173.49886445 95.26391602 171.98144531 C90.62889593 170.60624525 85.9637925 169.35116758 81.29125977 168.11035156 C80.49864746 167.89604492 79.70603516 167.68173828 78.8894043 167.4609375 C51.60995119 160.23939767 25.77685706 165.78564183 1.76000977 179.61425781 C-1.29732904 181.43771869 -4.0524413 183.49210093 -6.77124023 185.79785156 C-9.4148901 181.83237676 -11.33782206 177.54198865 -13.32202148 173.21777344 C-18.57758836 162.32233935 -27.24010104 154.0510186 -35.77124023 145.67285156 C-36.74697391 144.70718369 -37.72223695 143.74104003 -38.69702148 142.77441406 C-41.0505374 140.44420029 -43.40862179 138.11882949 -45.77124023 135.79785156 C-51.0729908 138.04648055 -54.66017027 142.35246881 -58.66064453 146.37158203 C-60.06010474 147.77416336 -61.47319627 149.16310105 -62.88647461 150.55175781 C-70.6381383 158.29791214 -76.8407164 166.28692366 -81.58374023 176.17285156 C-82.14706055 177.33558594 -82.71038086 178.49832031 -83.29077148 179.69628906 C-83.77932617 180.71980469 -84.26788086 181.74332031 -84.77124023 182.79785156 C-85.4344482 184.13290864 -86.09933458 185.46715061 -86.77124023 186.79785156 C-87.25850586 186.45753906 -87.74577148 186.11722656 -88.24780273 185.76660156 C-90.73051075 184.06933208 -93.24413379 182.42835449 -95.77124023 180.79785156 C-96.75350586 180.15976563 -97.73577148 179.52167969 -98.74780273 178.86425781 C-121.66992144 164.83198228 -148.61323923 160.7914993 -174.76391602 167.05151367 C-180.46117397 168.54187147 -186.11843323 170.14813525 -191.77124023 171.79785156 C-193.69054836 172.32848937 -195.61104698 172.85484856 -197.53295898 173.37597656 C-201.62142693 174.48659145 -205.69905867 175.62898463 -209.77124023 176.79785156 C-209.61268555 177.35988281 -209.45413086 177.92191406 -209.29077148 178.50097656 C-208.02039462 183.07714075 -206.79409835 187.6555174 -205.70483398 192.27832031 C-203.58741075 201.19995691 -201.21749218 209.94362704 -198.20874023 218.61035156 C-197.92804688 219.42753662 -197.64735352 220.24472168 -197.3581543 221.08666992 C-196.01782227 224.84185682 -194.59438419 228.22647726 -192.49389648 231.62207031 C-190.77124023 234.79785156 -190.77124023 234.79785156 -190.79858398 237.03222656 C-192.0162343 239.24257975 -193.36821347 240.46312157 -195.33374023 242.04785156 C-199.7423307 245.72300564 -203.76337441 249.69405278 -207.77124023 253.79785156 C-214.80534334 245.45719798 -220.65179706 234.08388496 -220.83374023 222.98535156 C-221.42883125 219.70008274 -221.42883125 219.70008274 -223.87670898 218.39941406 C-226.48163961 217.12965467 -229.11727485 215.96077849 -231.77124023 214.79785156 C-238.31557547 210.68861781 -243.95494021 202.62176483 -246.32983398 195.24316406 C-248.29584976 184.35178463 -247.32248116 174.52093416 -241.77124023 164.79785156 C-240.78124023 163.80785156 -240.78124023 163.80785156 -239.77124023 162.79785156 C-239.93612289 160.24560863 -239.93612289 160.24560863 -240.58374023 157.42285156 C-240.8718457 155.988125 -240.8718457 155.988125 -241.16577148 154.52441406 C-241.50260435 153.00757961 -241.85983871 151.49354764 -242.29418945 150.00170898 C-247.20666317 127.30728715 -240.78951634 104.88036024 -228.86108398 85.73144531 C-218.62042209 70.94872394 -201.96129376 55.71828632 -183.64233398 52.19628906 C-180.40039598 50.61722266 -180.24611205 50.27480702 -179.11889648 47.05175781 C-178.67157937 45.49326546 -178.2441745 43.92896073 -177.83374023 42.36035156 C-175.53188885 34.6118335 -172.72334783 28.27704079 -167.77124023 21.79785156 C-167.22725586 21.07339844 -166.68327148 20.34894531 -166.12280273 19.60253906 C-156.358558 7.5462181 -141.84113814 1.13160526 -126.77124023 -1.20214844 C-117.70960814 -2.05349869 -108.24848477 -0.90848229 -99.79858398 2.62207031 C-96.45003076 2.9124073 -94.06032019 0.90117753 -91.33374023 -0.82714844 C-63.61622897 -17.43159197 -27.30038803 -18.52889189 0 0 Z "
                        fill="#E8ECF4" transform="translate(302.771240234375,71.2021484375)" />
                    <path
                        d="M0 0 C6.13162193 2.56842377 10.55653564 8.11705313 15.1875 12.75 C15.70922791 13.2706604 16.23095581 13.7913208 16.76849365 14.32775879 C27.53240038 25.12370962 35.21279038 35.75008687 41 50 C41.54785156 49.5875 42.09570312 49.175 42.66015625 48.75 C65.24676056 32.29666873 90.21787816 25.56451431 118.17578125 29.6484375 C130.53355366 31.82951245 142.57291534 35.61731736 154.54663086 39.30737305 C157.01583901 40.00447162 159.47853044 40.53041116 162 41 C162.26866942 45.94351741 161.29284369 50.08528464 159.8125 54.75 C159.34866454 56.25862484 158.88647929 57.76775785 158.42578125 59.27734375 C158.0692749 60.44112549 158.0692749 60.44112549 157.70556641 61.62841797 C156.77955389 64.74097353 155.94733786 67.8751648 155.11352539 71.01342773 C152.98828545 78.97736903 150.41463375 86.47841844 147 94 C146.39273407 95.41534091 145.78805121 96.8317969 145.1875 98.25 C144.795625 99.1575 144.40375 100.065 144 101 C144.56960449 101.49814209 145.13920898 101.99628418 145.72607422 102.50952148 C153.14674699 109.08475442 160.1436664 116.02769665 167.125 123.0625 C168.28361712 124.22614753 169.4424699 125.38956046 170.6015625 126.55273438 C173.40375764 129.36580065 176.20277314 132.18199374 179 135 C177.7120942 137.82479814 176.35985214 139.89463148 174.17773438 142.09692383 C173.60953979 142.67465042 173.04134521 143.25237701 172.45593262 143.84761047 C171.84141235 144.46121933 171.22689209 145.07482819 170.59375 145.70703125 C169.95441528 146.35065109 169.31508057 146.99427094 168.65637207 147.65739441 C167.30048762 149.01901802 165.94197965 150.37803345 164.58105469 151.73461914 C162.52649318 153.78604722 160.48554153 155.85034548 158.4453125 157.91601562 C151.73551214 164.65869863 145.18862413 171.04221438 137 176 C135.53433594 176.90105469 135.53433594 176.90105469 134.0390625 177.8203125 C110.91533968 190.31759959 84.66698357 195.67978822 58.8984375 188.265625 C48.42191565 184.96056302 39.52716377 180.71629826 30 175 C30 194.14 30 213.28 30 233 C11.19 233 -7.62 233 -27 233 C-27 213.53 -27 194.06 -27 174 C-30.3 175.98 -33.6 177.96 -37 180 C-60.92854032 192.43779009 -86.65298577 194.4144999 -112.44287109 186.83007812 C-134.43072827 179.69252663 -150.19249917 164.00352748 -166.125 147.9375 C-167.18726206 146.87020583 -168.24976083 145.80314722 -169.3125 144.73632812 C-171.87772359 142.16025075 -174.4397678 139.58103929 -177 137 C-175.70763512 134.15817529 -174.34999508 132.10084263 -172.14257812 129.8996582 C-171.56858276 129.32258621 -170.9945874 128.74551422 -170.40319824 128.1509552 C-169.47658386 127.23511909 -169.47658386 127.23511909 -168.53125 126.30078125 C-167.57708191 125.34730049 -167.57708191 125.34730049 -166.6036377 124.3745575 C-165.26107333 123.03500886 -163.91608471 121.69788614 -162.56884766 120.36303711 C-160.502339 118.3148183 -158.44397788 116.25867668 -156.38671875 114.20117188 C-155.08120077 112.90056811 -153.77522672 111.60042194 -152.46875 110.30078125 C-151.85100708 109.68415115 -151.23326416 109.06752106 -150.59680176 108.4322052 C-146.23216894 104.11608447 -146.23216894 104.11608447 -144 103 C-144.74243434 99.34969781 -146.21144715 96.19493706 -147.75 92.8125 C-150.93697416 85.56201469 -153.15402102 78.18593478 -155.27001953 70.56640625 C-156.11478733 67.59644 -157.00656224 64.64247309 -157.90234375 61.6875 C-158.22855713 60.60194824 -158.55477051 59.51639648 -158.89086914 58.39794922 C-159.53925657 56.24159052 -160.19325742 54.08691053 -160.85327148 51.93408203 C-161.14661377 50.94778809 -161.43995605 49.96149414 -161.7421875 48.9453125 C-162.0088623 48.06375488 -162.27553711 47.18219727 -162.55029297 46.27392578 C-163 44 -163 44 -162 41 C-159.81713867 40.09619141 -159.81713867 40.09619141 -156.91796875 39.3515625 C-155.8513501 39.07062744 -154.78473145 38.78969238 -153.68579102 38.50024414 C-152.53135498 38.21141357 -151.37691895 37.92258301 -150.1875 37.625 C-149.002771 37.32263428 -147.81804199 37.02026855 -146.59741211 36.70874023 C-144.1872948 36.09398238 -141.77624068 35.48288543 -139.36425781 34.87548828 C-136.47576404 34.12380913 -133.62655091 33.3077895 -130.7734375 32.43359375 C-112.09418727 26.86943959 -91.49301315 26.55482685 -73 33 C-71.86820312 33.37382812 -70.73640625 33.74765625 -69.5703125 34.1328125 C-58.43469164 38.08923309 -48.68374894 44.32408217 -39 51 C-38.68289062 50.15179688 -38.36578125 49.30359375 -38.0390625 48.4296875 C-30.03822468 28.31708413 -15.25125183 14.7554622 0 0 Z "
                        fill="#9AC80A" transform="translate(255,206)" />
                    <path
                        d="M0 0 C3.91209308 1.59415503 6.37218086 4.13893332 9.3125 7.125 C10.21613281 8.03507813 11.11976563 8.94515625 12.05078125 9.8828125 C14.19966015 12.11186398 16.23844023 14.41382615 18.25798035 16.76039124 C21.64230833 20.63844021 25.17675095 24.318675 28.8215332 27.95092773 C29.46307846 28.59422531 30.10462372 29.23752289 30.76560974 29.90031433 C32.85818191 31.99724009 34.9543332 34.09054355 37.05078125 36.18359375 C38.51586767 37.64935458 39.98080568 39.11526376 41.44560242 40.58131409 C44.50093208 43.63811148 47.55804692 46.69310899 50.61645508 49.74682617 C54.54191097 53.6665549 58.46281953 57.59079696 62.38242817 61.51637173 C65.39939731 64.53694566 68.41873321 67.55514469 71.43880272 70.57261848 C72.88647099 72.01961883 74.33339446 73.46736472 75.77956581 74.91586113 C77.79245275 76.93127648 79.80849773 78.94347762 81.82543945 80.95483398 C82.72388077 81.85631165 82.72388077 81.85631165 83.64047241 82.77600098 C86.54410492 85.75219742 86.54410492 85.75219742 90 88 C91.16842696 93.61292186 91.17508429 99.22165404 91.203125 104.9375 C91.21018463 105.88667801 91.21724426 106.83585602 91.22451782 107.813797 C91.45264263 147.51541514 91.45264263 147.51541514 88 164 C87.70198486 165.46228027 87.70198486 165.46228027 87.39794922 166.95410156 C77.27732806 215.3359774 55.3608123 259.32428269 21 295 C20.36787598 295.65935547 19.73575195 296.31871094 19.08447266 296.99804688 C9.94002521 306.48630305 0.64265991 315.2262044 -10 323 C-11.15105017 323.85806152 -12.30209177 324.71613451 -13.453125 325.57421875 C-21.64275981 331.61177396 -30.14538276 336.99457302 -39 342 C-39.70721191 342.4021875 -40.41442383 342.804375 -41.14306641 343.21875 C-67.11217977 357.83958356 -95.65125177 367.09468514 -125 372 C-126.28519531 372.22558594 -127.57039062 372.45117188 -128.89453125 372.68359375 C-132.32724379 373.18789296 -135.71996964 373.47197319 -139.1778717 373.72080994 C-141.20194424 373.92104922 -143.21872978 374.20100673 -145.22557068 374.53199768 C-157.24006126 376.47395811 -169.6425661 377.65767318 -180.05523586 370.32953548 C-188.93281551 363.41843109 -196.62452623 355.1265941 -204.3031044 346.94150162 C-207.91428353 343.12796133 -211.61860556 339.40698518 -215.31323242 335.67456055 C-222.27052728 328.61846029 -229.14233525 321.48502279 -235.98587704 314.31873226 C-243.79111098 306.15370825 -251.68927893 298.08119348 -259.59587669 290.01447868 C-275.83473092 273.44264267 -291.95572741 256.76014305 -308 240 C-304.31133613 240 -303.30890521 240.97465257 -300.3125 243.0625 C-279.02060602 256.84781537 -254.02150032 261.23043684 -229.0625 256.875 C-218.07983682 254.29582993 -207.92787108 249.83108922 -198.171875 244.19921875 C-196 243 -196 243 -193 242 C-193 261.47 -193 280.94 -193 301 C-174.19 301 -155.38 301 -136 301 C-136 281.86 -136 262.72 -136 243 C-132.02794667 244.58882133 -128.50468059 246.30614817 -124.75 248.3125 C-104.02226663 259.01846401 -78.401166 261.74350346 -56 255 C-54.98164063 254.70996094 -53.96328125 254.41992188 -52.9140625 254.12109375 C-32.03246114 247.70630876 -17.04180636 234.67755446 -2.125 219.375 C-0.74444437 217.97431871 0.63706131 216.57457315 2.01953125 215.17578125 C5.35736528 211.79450247 8.68222543 208.40095889 12 205 C10.68228322 202.05315679 9.29435419 200.08947478 6.92578125 197.90625 C6.34119141 197.35066406 5.75660156 196.79507813 5.15429688 196.22265625 C3.92016781 195.0683595 2.68050187 193.91995593 1.43554688 192.77734375 C0.85482422 192.22175781 0.27410156 191.66617188 -0.32421875 191.09375 C-0.86135498 190.59552734 -1.39849121 190.09730469 -1.9519043 189.58398438 C-3 188 -3 188 -2.76245117 185.99829102 C-1.62360444 183.01351339 -0.11954003 180.25946904 1.375 177.4375 C5.08411507 170.24950375 7.39664427 163.15645061 8.5625 155.125 C10.53060773 150.84650493 13.15741814 150.00107415 17.39453125 148.23828125 C22.57019449 145.77848328 25.66347058 142.49196922 28.6875 137.6875 C29.55955078 136.33205078 29.55955078 136.33205078 30.44921875 134.94921875 C34.9818309 126.32926365 35.77225378 115.84382565 32.94921875 106.53515625 C31.39773963 102.83265888 29.63501339 99.26536833 27.83520508 95.67895508 C26.7998941 92.358152 27.2971793 90.83640022 28.34765625 87.55078125 C30.24348674 80.69791472 30.49960548 74.2694654 30.4375 67.1875 C30.42396484 65.33656738 30.42396484 65.33656738 30.41015625 63.44824219 C29.98239934 40.92565274 20.40059374 21.23080334 4.5 5.375 C3.6440625 4.55773437 2.788125 3.74046875 1.90625 2.8984375 C1.2771875 2.27195313 0.648125 1.64546875 0 1 C0 0.67 0 0.34 0 0 Z "
                        fill="#2e6338" transform="translate(421,138)" />
                    <path
                        d="M0 0 C0.80189758 0.00433548 1.60379517 0.00867096 2.42999268 0.01313782 C3.34008087 0.0214991 3.34008087 0.0214991 4.26855469 0.0300293 C4.83253067 18.91067689 5.25399318 37.78958725 5.51204681 56.67694855 C5.63512965 65.44987167 5.80244544 74.21752511 6.07910156 82.98706055 C6.32051147 90.64308842 6.47364025 98.29529977 6.52667856 105.95502806 C6.55763672 110.00267341 6.62868242 114.03941721 6.80607605 118.08351135 C7.93871322 144.9421811 7.93871322 144.9421811 -0.98803711 155.16845703 C-5.87779071 160.45914814 -11.37960517 164.98305778 -16.94995117 169.52949524 C-23.06670622 175.02839387 -27.02020938 182.06047431 -30.54394531 189.4050293 C-31.10726562 190.56776367 -31.67058594 191.73049805 -32.25097656 192.9284668 C-32.73953125 193.95198242 -33.22808594 194.97549805 -33.73144531 196.0300293 C-34.39465328 197.36508638 -35.05953966 198.69932835 -35.73144531 200.0300293 C-36.21871094 199.6897168 -36.70597656 199.3494043 -37.20800781 198.9987793 C-39.69071583 197.30150982 -42.20433887 195.66053222 -44.73144531 194.0300293 C-45.71371094 193.39194336 -46.69597656 192.75385742 -47.70800781 192.09643555 C-70.63012652 178.06416001 -97.57344431 174.02367703 -123.72412109 180.28369141 C-129.42137905 181.7740492 -135.07863831 183.38031299 -140.73144531 185.0300293 C-142.65075344 185.5606671 -144.57125206 186.08702629 -146.49316406 186.6081543 C-150.581632 187.71876918 -154.65926375 188.86116237 -158.73144531 190.0300293 C-158.57289063 190.59206055 -158.41433594 191.1540918 -158.25097656 191.7331543 C-156.98059969 196.30931849 -155.75430342 200.88769514 -154.66503906 205.51049805 C-152.54761583 214.43213465 -150.17769726 223.17580478 -147.16894531 231.8425293 C-146.88825195 232.65971436 -146.60755859 233.47689941 -146.31835938 234.31884766 C-144.97802735 238.07403456 -143.55458927 241.45865499 -141.45410156 244.85424805 C-139.73144531 248.0300293 -139.73144531 248.0300293 -139.75878906 250.2644043 C-140.97643938 252.47475748 -142.32841855 253.6952993 -144.29394531 255.2800293 C-148.70253578 258.95518337 -152.72357949 262.92623051 -156.73144531 267.0300293 C-163.76554842 258.68937572 -169.61200214 247.3160627 -169.79394531 236.2175293 C-170.38903633 232.93226048 -170.38903633 232.93226048 -172.83691406 231.6315918 C-175.44184469 230.36183241 -178.07747993 229.19295623 -180.73144531 228.0300293 C-187.27578055 223.92079554 -192.91514529 215.85394257 -195.29003906 208.4753418 C-197.25605484 197.58396236 -196.28268624 187.75311189 -190.73144531 178.0300293 C-189.74144531 177.0400293 -189.74144531 177.0400293 -188.73144531 176.0300293 C-188.89632796 173.47778636 -188.89632796 173.47778636 -189.54394531 170.6550293 C-189.83205078 169.22030273 -189.83205078 169.22030273 -190.12597656 167.7565918 C-190.46280943 166.23975734 -190.82004379 164.72572538 -191.25439453 163.23388672 C-196.16686825 140.53946488 -189.74972142 118.11253797 -177.82128906 98.96362305 C-167.58062717 84.18090167 -150.92149883 68.95046406 -132.60253906 65.4284668 C-129.36060106 63.8494004 -129.20631713 63.50698475 -128.07910156 60.28393555 C-127.63178445 58.72544319 -127.20437958 57.16113847 -126.79394531 55.5925293 C-124.49209393 47.84401123 -121.6835529 41.50921852 -116.73144531 35.0300293 C-116.18746094 34.30557617 -115.64347656 33.58112305 -115.08300781 32.8347168 C-105.31876308 20.77839584 -90.80134322 14.36378299 -75.73144531 12.0300293 C-66.66981322 11.17867905 -57.20868985 12.32369544 -48.75878906 15.85424805 C-45.41023584 16.14458503 -43.02052527 14.13335526 -40.29394531 12.4050293 C-28.10275477 5.10177854 -14.39478414 -0.10126736 0 0 Z "
                        fill="#FEFEFE" transform="translate(251.7314453125,57.969970703125)" />
                    <path
                        d="M0 0 C0.99 0.495 0.99 0.495 2 1 C2.36178081 19.80336005 2.60038411 38.6045696 2.69690418 57.41120434 C2.74453017 66.14612817 2.83072473 74.87732808 3.01147461 83.6105957 C3.16913272 91.23306864 3.25060354 98.85213576 3.24489135 106.4762972 C3.24442092 110.50609683 3.27913758 114.52788565 3.40552711 118.55586815 C4.22273569 145.88157993 4.22273569 145.88157993 -4.93938452 156.11001116 C-9.55139937 160.91356168 -14.67143273 165.02957137 -20 169 C-21.30992207 170.03440511 -22.61793784 171.07123454 -23.92301941 172.11174011 C-34.36765244 180.11955664 -47.40030971 185.48832162 -60 189 C-60.79664063 189.22558594 -61.59328125 189.45117188 -62.4140625 189.68359375 C-85.56057721 195.01096618 -111.74445339 190.02420894 -132 178 C-144.81779328 169.86235202 -155.48915602 158.66248056 -166.125 147.9375 C-167.18726206 146.87020583 -168.24976083 145.80314722 -169.3125 144.73632812 C-171.87772359 142.16025075 -174.4397678 139.58103929 -177 137 C-175.70763512 134.15817529 -174.34999508 132.10084263 -172.14257812 129.8996582 C-171.56858276 129.32258621 -170.9945874 128.74551422 -170.40319824 128.1509552 C-169.47658386 127.23511909 -169.47658386 127.23511909 -168.53125 126.30078125 C-167.57708191 125.34730049 -167.57708191 125.34730049 -166.6036377 124.3745575 C-165.26107333 123.03500886 -163.91608471 121.69788614 -162.56884766 120.36303711 C-160.502339 118.3148183 -158.44397788 116.25867668 -156.38671875 114.20117188 C-155.08120077 112.90056811 -153.77522672 111.60042194 -152.46875 110.30078125 C-151.85100708 109.68415115 -151.23326416 109.06752106 -150.59680176 108.4322052 C-146.23216894 104.11608447 -146.23216894 104.11608447 -144 103 C-144.74243434 99.34969781 -146.21144715 96.19493706 -147.75 92.8125 C-150.93697416 85.56201469 -153.15402102 78.18593478 -155.27001953 70.56640625 C-156.11478733 67.59644 -157.00656224 64.64247309 -157.90234375 61.6875 C-158.22855713 60.60194824 -158.55477051 59.51639648 -158.89086914 58.39794922 C-159.53925657 56.24159052 -160.19325742 54.08691053 -160.85327148 51.93408203 C-161.14661377 50.94778809 -161.43995605 49.96149414 -161.7421875 48.9453125 C-162.0088623 48.06375488 -162.27553711 47.18219727 -162.55029297 46.27392578 C-163 44 -163 44 -162 41 C-159.81713867 40.09619141 -159.81713867 40.09619141 -156.91796875 39.3515625 C-155.8513501 39.07062744 -154.78473145 38.78969238 -153.68579102 38.50024414 C-152.53135498 38.21141357 -151.37691895 37.92258301 -150.1875 37.625 C-149.002771 37.32263428 -147.81804199 37.02026855 -146.59741211 36.70874023 C-144.1872948 36.09398238 -141.77624068 35.48288543 -139.36425781 34.87548828 C-136.47576404 34.12380913 -133.62655091 33.3077895 -130.7734375 32.43359375 C-112.09418727 26.86943959 -91.49301315 26.55482685 -73 33 C-71.86820312 33.37382812 -70.73640625 33.74765625 -69.5703125 34.1328125 C-58.43469164 38.08923309 -48.68374894 44.32408217 -39 51 C-38.68289062 50.15179688 -38.36578125 49.30359375 -38.0390625 48.4296875 C-30.03822468 28.31708413 -15.25125183 14.7554622 0 0 Z "
                        fill="#9AC90A" transform="translate(255,206)" />
                    <path
                        d="M0 0 C2.46920815 0.69709857 4.93189958 1.22303811 7.45336914 1.69262695 C7.72203856 6.63614436 6.74621283 10.77791159 5.26586914 15.44262695 C4.80203368 16.9512518 4.33984843 18.46038481 3.87915039 19.9699707 C3.64147949 20.7458252 3.40380859 21.52167969 3.15893555 22.32104492 C2.23302793 25.43324789 1.40074809 28.56701052 0.56762695 31.70507812 C-3.67180932 47.5793743 -9.87804245 62.04021012 -20.54663086 74.69262695 C-21.19116211 75.49442383 -21.83569336 76.2962207 -22.49975586 77.12231445 C-35.13840737 92.14826681 -53.65872832 102.0015139 -72.54663086 106.69262695 C-73.39870117 106.91692383 -74.25077148 107.1412207 -75.12866211 107.37231445 C-97.74635442 112.4447923 -121.17063871 106.00901543 -142.54663086 98.69262695 C-139.82656572 95.47149719 -137.11367519 92.28707842 -134.20288086 89.2355957 C-117.830372 71.97876923 -110.93324544 52.43899968 -111.34350586 28.9621582 C-111.48813247 24.73924653 -112.05203694 20.73417838 -113.10913086 16.63793945 C-113.54663086 14.69262695 -113.54663086 14.69262695 -113.54663086 10.69262695 C-82.83533897 -19.65735562 -36.57243476 -11.27088084 0 0 Z "
                        fill="#82B20B" transform="translate(409.546630859375,245.307373046875)" />
                    <path
                        d="M0 0 C0.99 0.495 0.99 0.495 2 1 C2.36178081 19.80336005 2.60038411 38.6045696 2.69690418 57.41120434 C2.74453017 66.14612817 2.83072473 74.87732808 3.01147461 83.6105957 C3.16913272 91.23306864 3.25060354 98.85213576 3.24489135 106.4762972 C3.24442092 110.50609683 3.27913758 114.52788565 3.40552711 118.55586815 C4.22273569 145.88157993 4.22273569 145.88157993 -4.93938452 156.11001116 C-9.55139937 160.91356168 -14.67143273 165.02957137 -20 169 C-21.30992207 170.03440511 -22.61793784 171.07123454 -23.92301941 172.11174011 C-34.36765244 180.11955664 -47.40030971 185.48832162 -60 189 C-60.79664063 189.22558594 -61.59328125 189.45117188 -62.4140625 189.68359375 C-85.56057721 195.01096618 -111.74445339 190.02420894 -132 178 C-144.81779328 169.86235202 -155.48915602 158.66248056 -166.125 147.9375 C-167.18726206 146.87020583 -168.24976083 145.80314722 -169.3125 144.73632812 C-171.87772359 142.16025075 -174.4397678 139.58103929 -177 137 C-175.71348513 134.17475499 -174.36952515 132.12033219 -172.17431641 129.93139648 C-171.32300644 129.07547157 -171.32300644 129.07547157 -170.45449829 128.20225525 C-169.84302948 127.59797195 -169.23156067 126.99368866 -168.6015625 126.37109375 C-167.97019379 125.74018326 -167.33882507 125.10927277 -166.68832397 124.45924377 C-165.35415151 123.12808785 -164.01755399 121.79935866 -162.67871094 120.47290039 C-160.63420507 118.446623 -158.59778687 116.41248604 -156.5625 114.37695312 C-155.26349116 113.08286105 -153.96402696 111.78922587 -152.6640625 110.49609375 C-152.05664215 109.88978622 -151.4492218 109.2834787 -150.82339478 108.65879822 C-148.0136148 105.88025664 -145.26328329 103.25451317 -142 101 C-141.525625 101.928125 -141.05125 102.85625 -140.5625 103.8125 C-128.55239437 124.70331755 -107.08627168 138.05108401 -84.3125 144.3125 C-78.19673124 145.83985779 -72.29476199 146.77019123 -66 147 C-65.29101562 147.03996094 -64.58203125 147.07992187 -63.8515625 147.12109375 C-50.8072984 147.5332731 -38.04534615 144.2429881 -25.5625 140.875 C-24.13759099 140.4978612 -22.71246122 140.12155547 -21.28710938 139.74609375 C-17.85548913 138.84026235 -14.42694283 137.9233912 -11 137 C-14.31448245 133.03969376 -17.65477693 129.27591435 -21.4375 125.75 C-26.23394182 120.99386441 -29.71626981 115.88437866 -33 110 C-33.46277344 109.17113281 -33.92554688 108.34226562 -34.40234375 107.48828125 C-43.23645723 89.95431134 -44.21772503 69.72826019 -39 51 C-31.86567826 29.52639794 -15.78432191 15.27120317 0 0 Z "
                        fill="#A8D712" transform="translate(255,206)" />
                    <path
                        d="M0 0 C3.65211871 1.82605936 5.35716332 3.1400132 8.1171875 5.9921875 C9.27541016 7.17361328 9.27541016 7.17361328 10.45703125 8.37890625 C12.06132407 10.03503406 13.66549196 11.69128289 15.26953125 13.34765625 C16.04425781 14.13785156 16.81898438 14.92804688 17.6171875 15.7421875 C18.31440918 16.4626123 19.01163086 17.18303711 19.72998047 17.92529297 C21.96566201 20.19148691 21.96566201 20.19148691 25.23730469 21.42138672 C28.59550709 24.55582767 28.46157238 25.49877656 28.68115234 29.96191406 C28.68020212 32.48001755 28.64628633 34.99824459 28.5859375 37.515625 C28.57474115 38.85510354 28.56620303 40.19460672 28.56021118 41.53411865 C28.53734568 45.05290041 28.47844737 48.57018652 28.4119873 52.08837891 C28.35051248 55.68110555 28.32285624 59.27408209 28.29296875 62.8671875 C28.23187982 69.91277748 28.11446139 76.95426537 28 84 C18.76 84 9.52 84 0 84 C0 56.28 0 28.56 0 0 Z "
                        fill="#82B20B" transform="translate(256,355)" />
                    <path
                        d="M0 0 C14 14 28 28 42 42 C38.25955407 42 37.0661703 40.90266551 34 38.8125 C27.52286029 34.57151567 20.79863895 31.14490733 13.37109375 28.90625 C9.24672907 26.57404842 8.75236446 25.05195138 7.44726562 20.6796875 C7.13305664 19.47699219 7.13305664 19.47699219 6.8125 18.25 C5.12857945 12.26054498 3.20055435 7.34567964 0 2 C0 1.34 0 0.68 0 0 Z "
                        fill="#40814b" transform="translate(379,95)" />
                    <path
                        d="M0 0 C6.875 1.875 6.875 1.875 8 3 C8.04063832 4.66617115 8.042721 6.33388095 8 8 C6.85073734 7.04578192 5.70569459 6.08647955 4.5625 5.125 C3.92441406 4.59132813 3.28632812 4.05765625 2.62890625 3.5078125 C1 2 1 2 0 0 Z "
                        fill="#40814b" transform="translate(74,288)" />
                </svg>
