<svg xmlns="http://www.w3.org/2000/svg" version="1.1" viewBox="0 0 512 512"
                         style="shape-rendering:geometricPrecision; text-rendering:geometricPrecision; image-rendering:optimizeQuality; fill-rule:evenodd; clip-rule:evenodd"
                         xmlns:xlink="http://www.w3.org/1999/xlink">
                        <g>
                            <path style="opacity:0.991" fill="#006594"
                                  d="M 194.5,66.5 C 160.284,81.273 126.284,96.6063 92.5,112.5C 89.693,115.278 88.8596,118.611 90,122.5C 106.179,158.188 122.345,193.855 138.5,229.5C 132.642,229.178 126.975,229.511 121.5,230.5C 110.998,232.834 104.165,239.167 101,249.5C 100.83,259.342 100.33,269.009 99.5,278.5C 66.4614,249.459 33.1281,220.793 -0.5,192.5C -0.5,190.833 -0.5,189.167 -0.5,187.5C 46.9683,133.193 94.3017,78.6927 141.5,24C 142.833,23.3333 144.167,23.3333 145.5,24C 161.73,38.405 178.064,52.5717 194.5,66.5 Z" />
                        </g>
                        <g>
                            <path style="opacity:0.996" fill="#5fb6fe"
                                  d="M 324.5,86.5 C 286.499,86.3333 248.499,86.5 210.5,87C 209.333,88.1667 208.167,89.3333 207,90.5C 205.509,140.416 205.009,190.416 205.5,240.5C 200.273,235.718 194.273,232.218 187.5,230C 173.504,229.5 159.504,229.333 145.5,229.5C 129.033,192.774 112.366,156.107 95.5,119.5C 96.3636,117.803 97.6969,116.637 99.5,116C 132.83,101.332 165.83,86.1652 198.5,70.5C 230.581,55.7106 262.748,41.0439 295,26.5C 297.593,27.6612 299.259,29.6612 300,32.5C 307.907,50.645 316.074,68.645 324.5,86.5 Z" />
                        </g>
                        <g>
                            <path style="opacity:1" fill="#015d87"
                                  d="M 194.5,66.5 C 196.167,67.5 197.5,68.8333 198.5,70.5C 165.83,86.1652 132.83,101.332 99.5,116C 97.6969,116.637 96.3636,117.803 95.5,119.5C 112.366,156.107 129.033,192.774 145.5,229.5C 143.167,229.5 140.833,229.5 138.5,229.5C 122.345,193.855 106.179,158.188 90,122.5C 88.8596,118.611 89.693,115.278 92.5,112.5C 126.284,96.6063 160.284,81.273 194.5,66.5 Z" />
                        </g>
                        <g>
                            <path style="opacity:1" fill="#5aa7e7"
                                  d="M 324.5,86.5 C 325.73,88.2972 326.396,90.2972 326.5,92.5C 288.594,92.1703 250.761,92.5036 213,93.5C 212.5,144.832 212.333,196.166 212.5,247.5C 209.833,245.5 207.5,243.167 205.5,240.5C 205.009,190.416 205.509,140.416 207,90.5C 208.167,89.3333 209.333,88.1667 210.5,87C 248.499,86.5 286.499,86.3333 324.5,86.5 Z" />
                        </g>
                        <g>
                            <path style="opacity:1" fill="#e9f5fe"
                                  d="M 326.5,92.5 C 342.833,92.5 359.167,92.5 375.5,92.5C 375.333,108.503 375.5,124.503 376,140.5C 377.833,145 381,148.167 385.5,150C 397.162,150.5 408.829,150.667 420.5,150.5C 420.5,190.167 420.5,229.833 420.5,269.5C 411.936,274.397 404.603,280.73 398.5,288.5C 351.833,288.5 305.167,288.5 258.5,288.5C 255.1,286.963 251.767,285.13 248.5,283C 235.994,271.661 223.994,259.828 212.5,247.5C 212.333,196.166 212.5,144.832 213,93.5C 250.761,92.5036 288.594,92.1703 326.5,92.5 Z" />
                        </g>
                        <g>
                            <path style="opacity:1" fill="#c0c8d0"
                                  d="M 375.5,92.5 C 395.116,110.449 414.116,129.115 432.5,148.5C 428.971,150.423 424.971,151.089 420.5,150.5C 408.829,150.667 397.162,150.5 385.5,150C 381,148.167 377.833,145 376,140.5C 375.5,124.503 375.333,108.503 375.5,92.5 Z" />
                        </g>
                        <g>
                            <path style="opacity:1" fill="#bec7cf"
                                  d="M 244.5,135.5 C 278.502,135.333 312.502,135.5 346.5,136C 349.886,139.373 350.386,143.206 348,147.5C 347.25,148.126 346.416,148.626 345.5,149C 311.833,149.667 278.167,149.667 244.5,149C 239.246,144.408 239.246,139.908 244.5,135.5 Z" />
                        </g>
                        <g>
                            <path style="opacity:1" fill="#d3dde5"
                                  d="M 432.5,148.5 C 433.499,186.663 433.832,224.996 433.5,263.5C 429.239,265.484 424.906,267.484 420.5,269.5C 420.5,229.833 420.5,190.167 420.5,150.5C 424.971,151.089 428.971,150.423 432.5,148.5 Z" />
                        </g>
                        <g>
                            <path style="opacity:1" fill="#bec7cf"
                                  d="M 244.5,170.5 C 296.834,170.333 349.168,170.5 401.5,171C 406.951,175.754 406.617,180.087 400.5,184C 348.5,184.667 296.5,184.667 244.5,184C 239.246,179.408 239.246,174.908 244.5,170.5 Z" />
                        </g>
                        <g>
                            <path style="opacity:1" fill="#bec7cf"
                                  d="M 244.5,205.5 C 296.834,205.333 349.168,205.5 401.5,206C 406.951,210.754 406.617,215.087 400.5,219C 348.5,219.667 296.5,219.667 244.5,219C 239.246,214.408 239.246,209.908 244.5,205.5 Z" />
                        </g>
                        <g>
                            <path style="opacity:0.998" fill="#feba57"
                                  d="M 121.5,230.5 C 139.569,230.04 157.569,230.54 175.5,232C 180.789,235.62 185.789,239.62 190.5,244C 203.862,257.696 217.529,271.029 231.5,284C 234.186,285.368 236.853,286.701 239.5,288C 245.825,288.5 252.158,288.666 258.5,288.5C 305.167,288.5 351.833,288.5 398.5,288.5C 382.73,317.711 386.063,344.545 408.5,369C 419.47,378.318 432.137,383.485 446.5,384.5C 447.158,397.427 447.491,410.427 447.5,423.5C 447.632,437.552 447.132,451.552 446,465.5C 440.773,477.906 431.607,485.239 418.5,487.5C 321.166,487.667 223.833,487.5 126.5,487C 111.01,483.176 102.177,473.342 100,457.5C 99.5,397.834 99.3333,338.168 99.5,278.5C 100.33,269.009 100.83,259.342 101,249.5C 104.165,239.167 110.998,232.834 121.5,230.5 Z" />
                        </g>
                        <g>
                            <path style="opacity:1" fill="#e5a851"
                                  d="M 121.5,230.5 C 126.975,229.511 132.642,229.178 138.5,229.5C 140.833,229.5 143.167,229.5 145.5,229.5C 159.504,229.333 173.504,229.5 187.5,230C 194.273,232.218 200.273,235.718 205.5,240.5C 207.5,243.167 209.833,245.5 212.5,247.5C 223.994,259.828 235.994,271.661 248.5,283C 251.767,285.13 255.1,286.963 258.5,288.5C 252.158,288.666 245.825,288.5 239.5,288C 236.853,286.701 234.186,285.368 231.5,284C 217.529,271.029 203.862,257.696 190.5,244C 185.789,239.62 180.789,235.62 175.5,232C 157.569,230.54 139.569,230.04 121.5,230.5 Z" />
                        </g>
                        <g>
                            <path style="opacity:1" fill="#bec7cf"
                                  d="M 244.5,240.5 C 296.834,240.333 349.168,240.5 401.5,241C 406.726,245.251 406.726,249.585 401.5,254C 349.167,254.667 296.833,254.667 244.5,254C 240.304,251.019 239.471,247.186 242,242.5C 242.995,241.934 243.828,241.267 244.5,240.5 Z" />
                        </g>
                        <g>
                            <path style="opacity:1" fill="#27c73c"
                                  d="M 445.5,261.5 C 479.986,267.79 498.32,288.457 500.5,323.5C 498.11,357.217 480.443,377.55 447.5,384.5C 447.167,384.5 446.833,384.5 446.5,384.5C 432.137,383.485 419.47,378.318 408.5,369C 386.063,344.545 382.73,317.711 398.5,288.5C 404.603,280.73 411.936,274.397 420.5,269.5C 424.906,267.484 429.239,265.484 433.5,263.5C 437.426,262.448 441.426,261.782 445.5,261.5 Z" />
                        </g>
                        <g>
                            <path style="opacity:1" fill="#21b435"
                                  d="M 445.5,261.5 C 480.64,261.714 502.64,278.714 511.5,312.5C 511.5,319.833 511.5,327.167 511.5,334.5C 507.304,352.713 497.304,366.88 481.5,377C 476.81,379.729 471.81,381.563 466.5,382.5C 460.323,384.182 453.99,384.848 447.5,384.5C 480.443,377.55 498.11,357.217 500.5,323.5C 498.32,288.457 479.986,267.79 445.5,261.5 Z" />
                        </g>
                        <g>
                            <path style="opacity:1" fill="#e7f5fc"
                                  d="M 477.5,294.5 C 485.825,292.993 489.325,296.327 488,304.5C 472.167,320.333 456.333,336.167 440.5,352C 437.697,352.755 435.03,352.422 432.5,351C 426,344.5 419.5,338 413,331.5C 409.781,324.987 411.614,320.987 418.5,319.5C 420.791,319.622 422.791,320.455 424.5,322C 428.5,326 432.5,330 436.5,334C 437.167,334.667 437.833,334.667 438.5,334C 451.702,320.965 464.702,307.798 477.5,294.5 Z" />
                        </g>
                        <g>
                            <path style="opacity:1" fill="#e6a74e"
                                  d="M 466.5,382.5 C 466.966,410.217 466.466,437.884 465,465.5C 461.167,475.333 454.333,482.167 444.5,486C 435.902,487.376 427.235,487.876 418.5,487.5C 431.607,485.239 440.773,477.906 446,465.5C 447.132,451.552 447.632,437.552 447.5,423.5C 447.491,410.427 447.158,397.427 446.5,384.5C 446.833,384.5 447.167,384.5 447.5,384.5C 453.99,384.848 460.323,384.182 466.5,382.5 Z" />
                        </g>
                        <g>
                            <path style="opacity:1" fill="#d09746"
                                  d="M 143.5,385.5 C 168.502,385.333 193.502,385.5 218.5,386C 223.626,388.553 224.793,392.386 222,397.5C 221.097,398.701 219.931,399.535 218.5,400C 193.833,400.667 169.167,400.667 144.5,400C 139.311,397.087 138.144,392.92 141,387.5C 141.995,386.934 142.828,386.267 143.5,385.5 Z" />
                        </g>
                        <g>
                            <path style="opacity:1" fill="#d09746"
                                  d="M 144.5,434.5 C 237.167,434.333 329.834,434.5 422.5,435C 429.167,439.667 429.167,444.333 422.5,449C 329.5,449.667 236.5,449.667 143.5,449C 137.946,443.724 138.279,438.891 144.5,434.5 Z" />
                        </g>
                    </svg>
