<svg xmlns="http://www.w3.org/2000/svg" viewBox="0 0 512 512" xml:space="preserve">
                        <path style="fill:#90CAF9"
                              d="M423.887 70.442c-9.966 0-19.001-5.505-23.566-14.367-.397-.772-1.899-3.305-4.357-3.305H116.039c-2.46 0-3.961 2.533-4.357 3.309-4.565 8.857-13.6 14.363-23.566 14.363-14.617 0-26.508-11.891-26.508-26.508 0-4.88 3.952-8.836 8.836-8.836s8.836 3.956 8.836 8.836c0 4.871 3.961 8.836 8.836 8.836a8.82 8.82 0 0 0 7.861-4.789c4.16-8.068 11.658-12.883 20.062-12.883h279.925c8.404 0 15.903 4.815 20.062 12.879a8.81 8.81 0 0 0 7.861 4.794c4.875 0 8.836-3.965 8.836-8.836 0-4.88 3.952-8.836 8.836-8.836s8.836 3.956 8.836 8.836c0 14.616-11.891 26.507-26.508 26.507" />
                        <path style="fill:#3763ce"
                              d="M299.29 35.098h-86.58a44.35 44.35 0 0 0 0 17.672h25.618v415.297h35.344V52.77h25.618a44.35 44.35 0 0 0 0-17.672M96.615 50.34c-1.087-3.793-4.556-6.407-8.499-6.407s-7.412 2.614-8.499 6.407L8.927 297.751l17 4.858L88.115 84.934l62.19 217.675 17-4.858zm335.771 0c-1.087-3.793-4.556-6.407-8.499-6.407s-7.412 2.614-8.499 6.407l-70.689 247.411 17 4.858 62.19-217.675 62.19 217.675 17-4.858z" />
                        <path style="fill:#90CAF9"
                              d="M353.198 494.575H158.804c-9.761 0-17.672-7.912-17.672-17.672s7.912-17.672 17.672-17.672h194.394c9.761 0 17.672 7.912 17.672 17.672.001 9.759-7.912 17.672-17.672 17.672" />
                        <circle style="fill:#90CAF9" cx="256.005" cy="43.934" r="26.508" />
                        <path style="fill:#90CAF9"
                              d="M169.575 291.345c3.765 0 6.925 3.145 6.635 6.899-3.519 45.577-41.617 81.462-88.096 81.462S3.539 343.819.018 298.243c-.289-3.754 2.87-6.899 6.635-6.899h162.922z" />
                        <path style="fill:#3763ce"
                              d="M61.62 298.242c-.218-3.754 2.158-6.899 4.99-6.899H6.654c-3.765 0-6.925 3.145-6.635 6.899 3.52 45.577 41.617 81.462 88.096 81.462 7.856 0 15.443-1.103 22.694-3.027-26.809-9.459-46.99-40.562-49.189-78.435" />
                        <path style="fill:#90CAF9"
                              d="M505.347 291.345c3.765 0 6.925 3.145 6.635 6.899-3.519 45.577-41.617 81.462-88.096 81.462s-84.576-35.887-88.096-81.462c-.289-3.754 2.87-6.899 6.635-6.899z" />
                        <path style="fill:#3763ce"
                              d="M397.392 298.242c-.218-3.754 2.158-6.899 4.99-6.899h-59.956c-3.765 0-6.925 3.145-6.635 6.899 3.52 45.577 41.617 81.462 88.096 81.462 7.856 0 15.443-1.103 22.694-3.027-26.809-9.459-46.99-40.562-49.189-78.435M220.657 476.903c0-9.761 7.913-17.672 17.672-17.672h-79.525c-9.759 0-17.672 7.912-17.672 17.672 0 9.759 7.913 17.672 17.672 17.672h79.525c-9.76 0-17.672-7.913-17.672-17.672" />
                    </svg>
