<svg xmlns="http://www.w3.org/2000/svg" version="1.1" viewBox="0 0 512 512"
                             style="shape-rendering:geometricPrecision; text-rendering:geometricPrecision; image-rendering:optimizeQuality; fill-rule:evenodd; clip-rule:evenodd"
                             xmlns:xlink="http://www.w3.org/1999/xlink">
                            <g>
                                <path style="opacity:0.996" fill="#e7eff8"
                                      d="M 338.5,75.5 C 320.885,79.5684 308.385,89.9017 301,106.5C 296.038,109.649 291.705,108.982 288,104.5C 286.259,99.9456 284.926,95.2789 284,90.5C 282.666,86.8956 280.166,85.729 276.5,87C 274.461,88.9263 272.794,91.093 271.5,93.5C 264.638,102.891 259.638,113.225 256.5,124.5C 252.406,120.583 248.072,116.75 243.5,113C 239.807,110.474 235.807,109.14 231.5,109C 230.426,109.739 229.759,110.739 229.5,112C 231.984,116.49 234.484,120.99 237,125.5C 239.033,130.295 239.866,135.295 239.5,140.5C 234.466,139.526 229.466,138.359 224.5,137C 216.327,136.521 208.161,136.688 200,137.5C 183.747,137.131 172.58,129.465 166.5,114.5C 170.023,94.9794 181.69,83.9794 201.5,81.5C 201.662,34.1713 225.495,10.1713 273,9.5C 314.981,11.3143 336.814,33.3143 338.5,75.5 Z" />
                            </g>
                            <g>
                                <path style="opacity:0.996" fill="#a7b5c3"
                                      d="M 338.5,75.5 C 374.735,75.4018 394.402,93.4018 397.5,129.5C 396.239,149.094 386.905,163.427 369.5,172.5C 342.627,158.273 315.46,157.939 288,171.5C 290.034,165.376 291.701,159.043 293,152.5C 294.468,142.117 293.135,132.117 289,122.5C 283.699,113.564 279.199,104.23 275.5,94.5C 274.311,93.5713 272.978,93.238 271.5,93.5C 272.794,91.093 274.461,88.9263 276.5,87C 280.166,85.729 282.666,86.8956 284,90.5C 284.926,95.2789 286.259,99.9456 288,104.5C 291.705,108.982 296.038,109.649 301,106.5C 308.385,89.9017 320.885,79.5684 338.5,75.5 Z" />
                            </g>
                            <g>
                                <path style="opacity:0.99" fill="#896b66"
                                      d="M 271.5,93.5 C 272.978,93.238 274.311,93.5713 275.5,94.5C 279.199,104.23 283.699,113.564 289,122.5C 293.135,132.117 294.468,142.117 293,152.5C 291.701,159.043 290.034,165.376 288,171.5C 315.46,157.939 342.627,158.273 369.5,172.5C 375.135,177.303 380.302,182.637 385,188.5C 385.743,190.441 385.576,192.274 384.5,194C 371.886,190.809 359.053,188.309 346,186.5C 310.034,190.134 289.367,209.8 284,245.5C 281.18,314.832 281.013,384.166 283.5,453.5C 284.267,461.771 288.601,467.271 296.5,470C 300.28,470.918 303.946,471.751 307.5,472.5C 294.667,477.992 287.667,487.659 286.5,501.5C 275.833,501.5 265.167,501.5 254.5,501.5C 254.213,483.314 254.546,465.148 255.5,447C 254.242,430.558 249.742,415.058 242,400.5C 231.732,379.606 219.232,360.273 204.5,342.5C 216.154,338.077 227.487,338.744 238.5,344.5C 244.739,352.631 250.239,361.298 255,370.5C 255.652,322.15 254.985,273.817 253,225.5C 249.896,205.115 238.396,192.282 218.5,187C 193.204,187.352 177.537,175.352 171.5,151C 171.648,149.744 171.982,148.577 172.5,147.5C 176.724,148.522 180.391,150.689 183.5,154C 187.714,156.274 192.047,158.274 196.5,160C 208.452,161.225 220.452,161.891 232.5,162C 239.281,162.444 245.614,164.277 251.5,167.5C 252.332,157.183 252.832,146.849 253,136.5C 253.851,132.36 255.018,128.36 256.5,124.5C 259.638,113.225 264.638,102.891 271.5,93.5 Z" />
                            </g>
                            <g>
                                <path style="opacity:0.996" fill="#a7b5c3"
                                      d="M 256.5,124.5 C 255.018,128.36 253.851,132.36 253,136.5C 252.832,146.849 252.332,157.183 251.5,167.5C 245.614,164.277 239.281,162.444 232.5,162C 220.452,161.891 208.452,161.225 196.5,160C 192.047,158.274 187.714,156.274 183.5,154C 180.391,150.689 176.724,148.522 172.5,147.5C 168.09,136.976 166.09,125.976 166.5,114.5C 172.58,129.465 183.747,137.131 200,137.5C 208.161,136.688 216.327,136.521 224.5,137C 229.466,138.359 234.466,139.526 239.5,140.5C 239.866,135.295 239.033,130.295 237,125.5C 234.484,120.99 231.984,116.49 229.5,112C 229.759,110.739 230.426,109.739 231.5,109C 235.807,109.14 239.807,110.474 243.5,113C 248.072,116.75 252.406,120.583 256.5,124.5 Z" />
                            </g>
                            <g>
                                <path style="opacity:0.996" fill="#e7eff8"
                                      d="M 145.5,187.5 C 149.823,195.816 153.323,204.483 156,213.5C 158.456,227.004 157.79,240.338 154,253.5C 152.917,257.418 150.417,259.752 146.5,260.5C 138.804,256.099 130.638,252.766 122,250.5C 120.699,250.639 119.866,251.305 119.5,252.5C 117.483,257.06 116.15,261.894 115.5,267C 116.246,273.479 117.579,279.813 119.5,286C 119.919,288.981 118.919,291.314 116.5,293C 109.934,295.079 103.6,297.745 97.5,301C 85.8546,312.549 71.8546,317.549 55.5,316C 50.482,314.988 45.8153,313.155 41.5,310.5C 38.687,303.877 37.8537,296.877 39,289.5C 39.2401,287.148 40.0735,285.148 41.5,283.5C 49.8293,288.18 58.8293,289.68 68.5,288C 70.8127,287.338 73.146,286.838 75.5,286.5C 75.7135,284.856 75.3802,283.356 74.5,282C 70.7808,281.612 67.1141,280.945 63.5,280C 58.4374,277.798 53.4374,275.631 48.5,273.5C 38.0461,264.617 30.5461,253.617 26,240.5C 21.6387,215.056 30.8053,196.223 53.5,184C 71.4733,177.766 88.9733,178.933 106,187.5C 119.07,179.686 132.236,179.686 145.5,187.5 Z" />
                            </g>
                            <g>
                                <path style="opacity:0.992" fill="#a6b5c3"
                                      d="M 145.5,187.5 C 159.511,191.159 170.178,199.159 177.5,211.5C 176.12,211.962 175.453,212.962 175.5,214.5C 177.425,222.062 177.925,229.729 177,237.5C 172.893,250.928 169.893,264.595 168,278.5C 161.595,271.41 154.428,265.41 146.5,260.5C 150.417,259.752 152.917,257.418 154,253.5C 157.79,240.338 158.456,227.004 156,213.5C 153.323,204.483 149.823,195.816 145.5,187.5 Z" />
                            </g>
                            <g>
                                <path style="opacity:0.984" fill="#604f4d"
                                      d="M 177.5,211.5 C 178.873,211.343 180.207,211.51 181.5,212C 193.486,222.639 199.82,235.973 200.5,252C 199.963,262.023 198.13,271.856 195,281.5C 193.451,289.119 194.784,296.119 199,302.5C 213.781,315.11 226.947,329.11 238.5,344.5C 227.487,338.744 216.154,338.077 204.5,342.5C 193.774,331.146 180.774,327.313 165.5,331C 148.912,338.085 131.578,341.752 113.5,342C 110.756,342.803 108.089,343.803 105.5,345C 92.696,355.388 89.0293,352.555 94.5,336.5C 99.6451,326.523 107.312,319.023 117.5,314C 127.67,310.915 137.003,306.248 145.5,300C 146.872,298.758 147.872,297.258 148.5,295.5C 128.895,287.891 119.228,273.557 119.5,252.5C 119.866,251.305 120.699,250.639 122,250.5C 130.638,252.766 138.804,256.099 146.5,260.5C 154.428,265.41 161.595,271.41 168,278.5C 169.893,264.595 172.893,250.928 177,237.5C 177.925,229.729 177.425,222.062 175.5,214.5C 175.453,212.962 176.12,211.962 177.5,211.5 Z" />
                            </g>
                            <g>
                                <path style="opacity:0.993" fill="#a7b5c3"
                                      d="M 119.5,252.5 C 119.228,273.557 128.895,287.891 148.5,295.5C 147.872,297.258 146.872,298.758 145.5,300C 137.003,306.248 127.67,310.915 117.5,314C 107.312,319.023 99.6451,326.523 94.5,336.5C 82.4518,337.593 70.7851,336.093 59.5,332C 50.7493,327.087 44.7493,319.92 41.5,310.5C 45.8153,313.155 50.482,314.988 55.5,316C 71.8546,317.549 85.8546,312.549 97.5,301C 103.6,297.745 109.934,295.079 116.5,293C 118.919,291.314 119.919,288.981 119.5,286C 117.579,279.813 116.246,273.479 115.5,267C 116.15,261.894 117.483,257.06 119.5,252.5 Z" />
                            </g>
                            <g>
                                <path style="opacity:0.996" fill="#e7eff8"
                                      d="M 484.5,316.5 C 475.401,350.048 453.734,363.881 419.5,358C 417.91,356.954 416.41,355.787 415,354.5C 412.366,348.044 410.366,341.377 409,334.5C 407.9,330.778 405.734,327.944 402.5,326C 385.061,323.813 370.061,328.813 357.5,341C 346.625,345.965 337.458,343.798 330,334.5C 322.894,323.022 320.728,310.688 323.5,297.5C 331.247,288.712 341.08,284.046 353,283.5C 361.127,286.484 368.96,285.984 376.5,282C 393.817,265.338 413.817,261.005 436.5,269C 457.686,279.687 473.686,295.52 484.5,316.5 Z" />
                            </g>
                            <g>
                                <path style="opacity:0.996" fill="#a8b7c5"
                                      d="M 48.5,273.5 C 53.4374,275.631 58.4374,277.798 63.5,280C 67.1141,280.945 70.7808,281.612 74.5,282C 75.3802,283.356 75.7135,284.856 75.5,286.5C 73.146,286.838 70.8127,287.338 68.5,288C 58.8293,289.68 49.8293,288.18 41.5,283.5C 42.3593,279.108 44.6927,275.775 48.5,273.5 Z" />
                            </g>
                            <g>
                                <path style="opacity:0.994" fill="#a6b5c3"
                                      d="M 323.5,297.5 C 320.728,310.688 322.894,323.022 330,334.5C 337.458,343.798 346.625,345.965 357.5,341C 370.061,328.813 385.061,323.813 402.5,326C 405.734,327.944 407.9,330.778 409,334.5C 410.366,341.377 412.366,348.044 415,354.5C 416.41,355.787 417.91,356.954 419.5,358C 453.734,363.881 475.401,350.048 484.5,316.5C 487.466,326.651 486.966,336.651 483,346.5C 479.667,351.833 476.333,357.167 473,362.5C 472.333,365.833 472.333,369.167 473,372.5C 477.684,377.865 481.35,383.865 484,390.5C 488.41,406.95 483.577,419.783 469.5,429C 461.663,433.334 453.33,436.168 444.5,437.5C 434.659,420.219 419.659,410.386 399.5,408C 391.582,406.347 383.582,405.347 375.5,405C 385.514,399.983 392.348,392.149 396,381.5C 400.319,367.634 400.485,353.801 396.5,340C 386.817,340.501 378.151,343.834 370.5,350C 359.698,359.462 351.198,370.628 345,383.5C 341.125,371.95 334.458,362.283 325,354.5C 320.612,348.391 317.279,341.724 315,334.5C 314.292,333.619 313.458,332.953 312.5,332.5C 311.187,319.113 314.854,307.446 323.5,297.5 Z" />
                            </g>
                            <g>
                                <path style="opacity:0.986" fill="#604f4d"
                                      d="M 312.5,332.5 C 313.458,332.953 314.292,333.619 315,334.5C 317.279,341.724 320.612,348.391 325,354.5C 334.458,362.283 341.125,371.95 345,383.5C 351.198,370.628 359.698,359.462 370.5,350C 378.151,343.834 386.817,340.501 396.5,340C 400.485,353.801 400.319,367.634 396,381.5C 392.348,392.149 385.514,399.983 375.5,405C 383.582,405.347 391.582,406.347 399.5,408C 419.659,410.386 434.659,420.219 444.5,437.5C 446.323,443.371 446.823,449.371 446,455.5C 445.107,456.081 444.107,456.415 443,456.5C 429.699,449.605 415.532,445.938 400.5,445.5C 389.926,447.412 379.593,446.578 369.5,443C 363,439.185 358.5,433.685 356,426.5C 351.341,443.15 341.508,455.65 326.5,464C 320.381,467.394 314.048,470.228 307.5,472.5C 303.946,471.751 300.28,470.918 296.5,470C 288.601,467.271 284.267,461.771 283.5,453.5C 301.723,449.09 315.89,439.09 326,423.5C 327.892,419.825 329.392,415.991 330.5,412C 310.584,395.97 302.417,375.136 306,349.5C 306.488,344.393 307.488,339.393 309,334.5C 309.71,333.027 310.876,332.36 312.5,332.5 Z" />
                            </g>
                        </svg>
